solid ascii
  facet normal -0.000000e+000 -0.000000e+000 -1.000000e+000
    outer loop
      vertex   -1.577500e+002 5.049999e+001 2.600000e+001
      vertex   -1.577500e+002 4.849999e+001 2.600000e+001
      vertex   -1.632600e+002 5.049999e+001 2.600000e+001
    endloop
  endfacet
  facet normal -0.000000e+000 -0.000000e+000 -1.000000e+000
    outer loop
      vertex   -1.632600e+002 5.049999e+001 2.600000e+001
      vertex   -1.577500e+002 4.849999e+001 2.600000e+001
      vertex   -1.632600e+002 4.849999e+001 2.600000e+001
    endloop
  endfacet
  facet normal 3.223907e-016 0.000000e+000 1.000000e+000
    outer loop
      vertex   -1.632600e+002 5.049999e+001 4.000000e+000
      vertex   -1.632600e+002 4.849999e+001 4.000000e+000
      vertex   -1.577500e+002 5.049999e+001 4.000000e+000
    endloop
  endfacet
  facet normal 3.223907e-016 0.000000e+000 1.000000e+000
    outer loop
      vertex   -1.577500e+002 5.049999e+001 4.000000e+000
      vertex   -1.632600e+002 4.849999e+001 4.000000e+000
      vertex   -1.577500e+002 4.849999e+001 4.000000e+000
    endloop
  endfacet
  facet normal -1.000000e+000 0.000000e+000 0.000000e+000
    outer loop
      vertex   -1.577500e+002 5.049999e+001 4.000000e+000
      vertex   -1.577500e+002 4.849999e+001 1.688185e+001
      vertex   -1.577500e+002 5.049999e+001 2.600000e+001
    endloop
  endfacet
  facet normal -1.000000e+000 0.000000e+000 0.000000e+000
    outer loop
      vertex   -1.577500e+002 5.049999e+001 4.000000e+000
      vertex   -1.577500e+002 4.849999e+001 1.138185e+001
      vertex   -1.577500e+002 4.849999e+001 1.688185e+001
    endloop
  endfacet
  facet normal -1.000000e+000 0.000000e+000 0.000000e+000
    outer loop
      vertex   -1.577500e+002 5.049999e+001 4.000000e+000
      vertex   -1.577500e+002 4.849999e+001 5.881846e+000
      vertex   -1.577500e+002 4.849999e+001 1.138185e+001
    endloop
  endfacet
  facet normal -1.000000e+000 0.000000e+000 0.000000e+000
    outer loop
      vertex   -1.577500e+002 5.049999e+001 4.000000e+000
      vertex   -1.577500e+002 4.849999e+001 4.000000e+000
      vertex   -1.577500e+002 4.849999e+001 5.881846e+000
    endloop
  endfacet
  facet normal -1.000000e+000 0.000000e+000 0.000000e+000
    outer loop
      vertex   -1.577500e+002 4.849999e+001 5.881846e+000
      vertex   -1.577500e+002 4.749999e+001 5.881846e+000
      vertex   -1.577500e+002 4.849999e+001 1.138185e+001
    endloop
  endfacet
  facet normal -1.000000e+000 -0.000000e+000 0.000000e+000
    outer loop
      vertex   -1.577500e+002 4.849999e+001 1.138185e+001
      vertex   -1.577500e+002 4.749999e+001 5.881846e+000
      vertex   -1.577500e+002 4.749999e+001 1.138185e+001
    endloop
  endfacet
  facet normal -1.000000e+000 -0.000000e+000 -0.000000e+000
    outer loop
      vertex   -1.577500e+002 4.749999e+001 1.138185e+001
      vertex   -1.577500e+002 4.749999e+001 5.881846e+000
      vertex   -1.577500e+002 4.649999e+001 1.038185e+001
    endloop
  endfacet
  facet normal -1.000000e+000 -0.000000e+000 -0.000000e+000
    outer loop
      vertex   -1.577500e+002 4.649999e+001 1.038185e+001
      vertex   -1.577500e+002 4.749999e+001 5.881846e+000
      vertex   -1.577500e+002 4.649999e+001 6.881846e+000
    endloop
  endfacet
  facet normal -1.000000e+000 -0.000000e+000 0.000000e+000
    outer loop
      vertex   -1.577500e+002 5.049999e+001 2.600000e+001
      vertex   -1.577500e+002 4.849999e+001 1.688185e+001
      vertex   -1.577500e+002 4.849999e+001 2.238185e+001
    endloop
  endfacet
  facet normal -1.000000e+000 0.000000e+000 -0.000000e+000
    outer loop
      vertex   -1.577500e+002 4.849999e+001 2.600000e+001
      vertex   -1.577500e+002 5.049999e+001 2.600000e+001
      vertex   -1.577500e+002 4.849999e+001 2.238185e+001
    endloop
  endfacet
  facet normal -1.000000e+000 0.000000e+000 0.000000e+000
    outer loop
      vertex   -1.577500e+002 4.649999e+001 1.788185e+001
      vertex   -1.577500e+002 4.649999e+001 2.138185e+001
      vertex   -1.577500e+002 4.749999e+001 1.688185e+001
    endloop
  endfacet
  facet normal -1.000000e+000 0.000000e+000 0.000000e+000
    outer loop
      vertex   -1.577500e+002 4.749999e+001 1.688185e+001
      vertex   -1.577500e+002 4.649999e+001 2.138185e+001
      vertex   -1.577500e+002 4.749999e+001 2.238185e+001
    endloop
  endfacet
  facet normal -1.000000e+000 -0.000000e+000 0.000000e+000
    outer loop
      vertex   -1.577500e+002 4.849999e+001 2.238185e+001
      vertex   -1.577500e+002 4.749999e+001 1.688185e+001
      vertex   -1.577500e+002 4.749999e+001 2.238185e+001
    endloop
  endfacet
  facet normal -1.000000e+000 -0.000000e+000 -0.000000e+000
    outer loop
      vertex   -1.577500e+002 4.849999e+001 2.238185e+001
      vertex   -1.577500e+002 4.849999e+001 1.688185e+001
      vertex   -1.577500e+002 4.749999e+001 1.688185e+001
    endloop
  endfacet
  facet normal 0.000000e+000 -0.000000e+000 1.000000e+000
    outer loop
      vertex   -1.577500e+002 4.749999e+001 2.238185e+001
      vertex   -1.428832e+002 4.749999e+001 2.238185e+001
      vertex   -1.577500e+002 4.849999e+001 2.238185e+001
    endloop
  endfacet
  facet normal -0.000000e+000 0.000000e+000 1.000000e+000
    outer loop
      vertex   -1.577500e+002 4.849999e+001 2.238185e+001
      vertex   -1.428832e+002 4.749999e+001 2.238185e+001
      vertex   -1.428832e+002 4.849999e+001 2.238185e+001
    endloop
  endfacet
  facet normal -1.000000e+000 -0.000000e+000 -0.000000e+000
    outer loop
      vertex   -1.632600e+002 5.049999e+001 4.000000e+000
      vertex   -1.632600e+002 5.049999e+001 1.000000e+000
      vertex   -1.632600e+002 4.849999e+001 4.000000e+000
    endloop
  endfacet
  facet normal -1.000000e+000 -0.000000e+000 -0.000000e+000
    outer loop
      vertex   -1.632600e+002 4.849999e+001 4.000000e+000
      vertex   -1.632600e+002 5.049999e+001 1.000000e+000
      vertex   -1.632600e+002 4.849999e+001 1.000000e+000
    endloop
  endfacet
  facet normal -1.000000e+000 0.000000e+000 0.000000e+000
    outer loop
      vertex   -1.632600e+002 4.849999e+001 2.600000e+001
      vertex   -1.632600e+002 4.849999e+001 2.788185e+001
      vertex   -1.632600e+002 5.049999e+001 2.600000e+001
    endloop
  endfacet
  facet normal -1.000000e+000 0.000000e+000 0.000000e+000
    outer loop
      vertex   -1.632600e+002 5.049999e+001 2.600000e+001
      vertex   -1.632600e+002 4.849999e+001 2.788185e+001
      vertex   -1.632600e+002 4.849999e+001 3.338185e+001
    endloop
  endfacet
  facet normal -1.000000e+000 -0.000000e+000 0.000000e+000
    outer loop
      vertex   -1.632600e+002 5.049999e+001 3.702152e+001
      vertex   -1.632600e+002 4.849999e+001 3.338185e+001
      vertex   -1.632600e+002 4.849999e+001 3.702152e+001
    endloop
  endfacet
  facet normal -1.000000e+000 -0.000000e+000 -0.000000e+000
    outer loop
      vertex   -1.632600e+002 5.049999e+001 3.702152e+001
      vertex   -1.632600e+002 5.049999e+001 2.600000e+001
      vertex   -1.632600e+002 4.849999e+001 3.338185e+001
    endloop
  endfacet
  facet normal 0.000000e+000 -7.071068e-001 7.071068e-001
    outer loop
      vertex   -1.577500e+002 4.649999e+001 2.138185e+001
      vertex   -1.428832e+002 4.649999e+001 2.138185e+001
      vertex   -1.577500e+002 4.749999e+001 2.238185e+001
    endloop
  endfacet
  facet normal 0.000000e+000 -7.071068e-001 7.071068e-001
    outer loop
      vertex   -1.577500e+002 4.749999e+001 2.238185e+001
      vertex   -1.428832e+002 4.649999e+001 2.138185e+001
      vertex   -1.428832e+002 4.749999e+001 2.238185e+001
    endloop
  endfacet
  facet normal 0.000000e+000 -1.000000e+000 0.000000e+000
    outer loop
      vertex   -1.577500e+002 4.649999e+001 1.788185e+001
      vertex   -1.428832e+002 4.649999e+001 1.788185e+001
      vertex   -1.577500e+002 4.649999e+001 2.138185e+001
    endloop
  endfacet
  facet normal 0.000000e+000 -1.000000e+000 0.000000e+000
    outer loop
      vertex   -1.577500e+002 4.649999e+001 2.138185e+001
      vertex   -1.428832e+002 4.649999e+001 1.788185e+001
      vertex   -1.428832e+002 4.649999e+001 2.138185e+001
    endloop
  endfacet
  facet normal 0.000000e+000 -7.071068e-001 -7.071068e-001
    outer loop
      vertex   -1.577500e+002 4.749999e+001 1.688185e+001
      vertex   -1.428832e+002 4.749999e+001 1.688185e+001
      vertex   -1.577500e+002 4.649999e+001 1.788185e+001
    endloop
  endfacet
  facet normal 0.000000e+000 -7.071068e-001 -7.071068e-001
    outer loop
      vertex   -1.577500e+002 4.649999e+001 1.788185e+001
      vertex   -1.428832e+002 4.749999e+001 1.688185e+001
      vertex   -1.428832e+002 4.649999e+001 1.788185e+001
    endloop
  endfacet
  facet normal 0.000000e+000 0.000000e+000 -1.000000e+000
    outer loop
      vertex   -1.577500e+002 4.749999e+001 1.688185e+001
      vertex   -1.577500e+002 4.849999e+001 1.688185e+001
      vertex   -1.428832e+002 4.749999e+001 1.688185e+001
    endloop
  endfacet
  facet normal 0.000000e+000 0.000000e+000 -1.000000e+000
    outer loop
      vertex   -1.428832e+002 4.749999e+001 1.688185e+001
      vertex   -1.577500e+002 4.849999e+001 1.688185e+001
      vertex   -1.428832e+002 4.849999e+001 1.688185e+001
    endloop
  endfacet
  facet normal 0.000000e+000 -1.000000e+000 1.013552e-006
    outer loop
      vertex   -1.632600e+002 4.849999e+001 2.600000e+001
      vertex   -1.577500e+002 4.849999e+001 2.600000e+001
      vertex   -1.632600e+002 4.849999e+001 2.788185e+001
    endloop
  endfacet
  facet normal 0.000000e+000 -1.000000e+000 1.013552e-006
    outer loop
      vertex   -1.632600e+002 4.849999e+001 2.788185e+001
      vertex   -1.577500e+002 4.849999e+001 2.600000e+001
      vertex   -1.428832e+002 4.849999e+001 2.788185e+001
    endloop
  endfacet
  facet normal 1.282960e-007 -1.000000e+000 0.000000e+000
    outer loop
      vertex   -1.428832e+002 4.849999e+001 2.788185e+001
      vertex   -1.577500e+002 4.849999e+001 2.600000e+001
      vertex   -1.428832e+002 4.849999e+001 2.238185e+001
    endloop
  endfacet
  facet normal -2.330814e-005 -1.000000e+000 -0.000000e+000
    outer loop
      vertex   -1.428014e+002 4.849999e+001 3.702152e+001
      vertex   -1.428832e+002 4.849999e+001 2.238185e+001
      vertex   -1.428832e+002 4.849999e+001 1.688185e+001
    endloop
  endfacet
  facet normal -2.330814e-005 -1.000000e+000 -0.000000e+000
    outer loop
      vertex   -1.428014e+002 4.849999e+001 1.000000e+000
      vertex   -1.428832e+002 4.849999e+001 1.688185e+001
      vertex   -1.428832e+002 4.849999e+001 1.138185e+001
    endloop
  endfacet
  facet normal -2.330814e-005 -1.000000e+000 0.000000e+000
    outer loop
      vertex   -1.428832e+002 4.849999e+001 5.881846e+000
      vertex   -1.428014e+002 4.849999e+001 1.000000e+000
      vertex   -1.428832e+002 4.849999e+001 1.138185e+001
    endloop
  endfacet
  facet normal 7.867375e-008 -1.000000e+000 3.920211e-007
    outer loop
      vertex   -1.428832e+002 4.849999e+001 5.881846e+000
      vertex   -1.577500e+002 4.849999e+001 4.000000e+000
      vertex   -1.428014e+002 4.849999e+001 1.000000e+000
    endloop
  endfacet
  facet normal 1.282960e-007 -1.000000e+000 0.000000e+000
    outer loop
      vertex   -1.428832e+002 4.849999e+001 5.881846e+000
      vertex   -1.577500e+002 4.849999e+001 5.881846e+000
      vertex   -1.577500e+002 4.849999e+001 4.000000e+000
    endloop
  endfacet
  facet normal 1.282960e-007 -1.000000e+000 0.000000e+000
    outer loop
      vertex   -1.577500e+002 4.849999e+001 2.600000e+001
      vertex   -1.577500e+002 4.849999e+001 2.238185e+001
      vertex   -1.428832e+002 4.849999e+001 2.238185e+001
    endloop
  endfacet
  facet normal -2.330814e-005 -1.000000e+000 -0.000000e+000
    outer loop
      vertex   -1.428832e+002 4.849999e+001 2.788185e+001
      vertex   -1.428832e+002 4.849999e+001 2.238185e+001
      vertex   -1.428014e+002 4.849999e+001 3.702152e+001
    endloop
  endfacet
  facet normal -0.000000e+000 -1.000000e+000 -5.240441e-007
    outer loop
      vertex   -1.428832e+002 4.849999e+001 3.338185e+001
      vertex   -1.428014e+002 4.849999e+001 3.702152e+001
      vertex   -1.632600e+002 4.849999e+001 3.702152e+001
    endloop
  endfacet
  facet normal 0.000000e+000 -1.000000e+000 -5.240441e-007
    outer loop
      vertex   -1.632600e+002 4.849999e+001 3.338185e+001
      vertex   -1.428832e+002 4.849999e+001 3.338185e+001
      vertex   -1.632600e+002 4.849999e+001 3.702152e+001
    endloop
  endfacet
  facet normal 1.282960e-007 -1.000000e+000 0.000000e+000
    outer loop
      vertex   -1.428832e+002 4.849999e+001 1.688185e+001
      vertex   -1.577500e+002 4.849999e+001 1.688185e+001
      vertex   -1.428832e+002 4.849999e+001 1.138185e+001
    endloop
  endfacet
  facet normal 1.282960e-007 -1.000000e+000 0.000000e+000
    outer loop
      vertex   -1.428832e+002 4.849999e+001 1.138185e+001
      vertex   -1.577500e+002 4.849999e+001 1.688185e+001
      vertex   -1.577500e+002 4.849999e+001 1.138185e+001
    endloop
  endfacet
  facet normal 0.000000e+000 -1.000000e+000 0.000000e+000
    outer loop
      vertex   -1.632600e+002 4.849999e+001 4.000000e+000
      vertex   -1.632600e+002 4.849999e+001 1.000000e+000
      vertex   -1.577500e+002 4.849999e+001 4.000000e+000
    endloop
  endfacet
  facet normal 0.000000e+000 -1.000000e+000 -0.000000e+000
    outer loop
      vertex   -1.577500e+002 4.849999e+001 4.000000e+000
      vertex   -1.632600e+002 4.849999e+001 1.000000e+000
      vertex   -1.428014e+002 4.849999e+001 1.000000e+000
    endloop
  endfacet
  facet normal -2.330814e-005 -1.000000e+000 0.000000e+000
    outer loop
      vertex   -1.428014e+002 4.849999e+001 1.000000e+000
      vertex   -1.428014e+002 4.849999e+001 3.702152e+001
      vertex   -1.428832e+002 4.849999e+001 1.688185e+001
    endloop
  endfacet
  facet normal -2.330814e-005 -1.000000e+000 0.000000e+000
    outer loop
      vertex   -1.428832e+002 4.849999e+001 2.788185e+001
      vertex   -1.428014e+002 4.849999e+001 3.702152e+001
      vertex   -1.428832e+002 4.849999e+001 3.338185e+001
    endloop
  endfacet
  facet normal 0.000000e+000 -1.776360e-015 1.000000e+000
    outer loop
      vertex   -1.577500e+002 4.749999e+001 1.138185e+001
      vertex   -1.428832e+002 4.749999e+001 1.138185e+001
      vertex   -1.577500e+002 4.849999e+001 1.138185e+001
    endloop
  endfacet
  facet normal 1.194850e-016 -0.000000e+000 1.000000e+000
    outer loop
      vertex   -1.577500e+002 4.849999e+001 1.138185e+001
      vertex   -1.428832e+002 4.749999e+001 1.138185e+001
      vertex   -1.428832e+002 4.849999e+001 1.138185e+001
    endloop
  endfacet
  facet normal 0.000000e+000 -0.000000e+000 1.000000e+000
    outer loop
      vertex   -1.632600e+002 4.849999e+001 3.702152e+001
      vertex   -1.428014e+002 4.849999e+001 3.702152e+001
      vertex   -1.632600e+002 5.049999e+001 3.702152e+001
    endloop
  endfacet
  facet normal -0.000000e+000 0.000000e+000 1.000000e+000
    outer loop
      vertex   -1.632600e+002 5.049999e+001 3.702152e+001
      vertex   -1.428014e+002 4.849999e+001 3.702152e+001
      vertex   -1.428014e+002 5.049999e+001 3.702152e+001
    endloop
  endfacet
  facet normal 1.000000e+000 -0.000000e+000 0.000000e+000
    outer loop
      vertex   -1.428014e+002 4.849999e+001 3.702152e+001
      vertex   -1.428014e+002 4.849999e+001 1.000000e+000
      vertex   -1.428014e+002 5.049999e+001 3.702152e+001
    endloop
  endfacet
  facet normal 1.000000e+000 -0.000000e+000 0.000000e+000
    outer loop
      vertex   -1.428014e+002 5.049999e+001 3.702152e+001
      vertex   -1.428014e+002 4.849999e+001 1.000000e+000
      vertex   -1.428014e+002 5.049999e+001 1.000000e+000
    endloop
  endfacet
  facet normal 0.000000e+000 -0.000000e+000 -1.000000e+000
    outer loop
      vertex   -1.632600e+002 5.049999e+001 1.000000e+000
      vertex   -1.428014e+002 5.049999e+001 1.000000e+000
      vertex   -1.632600e+002 4.849999e+001 1.000000e+000
    endloop
  endfacet
  facet normal 0.000000e+000 0.000000e+000 -1.000000e+000
    outer loop
      vertex   -1.632600e+002 4.849999e+001 1.000000e+000
      vertex   -1.428014e+002 5.049999e+001 1.000000e+000
      vertex   -1.428014e+002 4.849999e+001 1.000000e+000
    endloop
  endfacet
  facet normal 0.000000e+000 -7.071068e-001 7.071068e-001
    outer loop
      vertex   -1.633832e+002 4.649999e+001 3.238185e+001
      vertex   -1.428832e+002 4.649999e+001 3.238185e+001
      vertex   -1.633832e+002 4.749999e+001 3.338185e+001
    endloop
  endfacet
  facet normal 0.000000e+000 -7.071068e-001 7.071068e-001
    outer loop
      vertex   -1.633832e+002 4.749999e+001 3.338185e+001
      vertex   -1.428832e+002 4.649999e+001 3.238185e+001
      vertex   -1.428832e+002 4.749999e+001 3.338185e+001
    endloop
  endfacet
  facet normal 1.000000e+000 -0.000000e+000 0.000000e+000
    outer loop
      vertex   -1.428832e+002 4.649999e+001 3.238185e+001
      vertex   -1.428832e+002 4.649999e+001 2.888185e+001
      vertex   -1.428832e+002 4.749999e+001 3.338185e+001
    endloop
  endfacet
  facet normal 1.000000e+000 0.000000e+000 0.000000e+000
    outer loop
      vertex   -1.428832e+002 4.749999e+001 3.338185e+001
      vertex   -1.428832e+002 4.649999e+001 2.888185e+001
      vertex   -1.428832e+002 4.749999e+001 2.788185e+001
    endloop
  endfacet
  facet normal 1.000000e+000 -0.000000e+000 0.000000e+000
    outer loop
      vertex   -1.428832e+002 4.849999e+001 3.338185e+001
      vertex   -1.428832e+002 4.749999e+001 2.788185e+001
      vertex   -1.428832e+002 4.849999e+001 2.788185e+001
    endloop
  endfacet
  facet normal 1.000000e+000 0.000000e+000 0.000000e+000
    outer loop
      vertex   -1.428832e+002 4.849999e+001 3.338185e+001
      vertex   -1.428832e+002 4.749999e+001 3.338185e+001
      vertex   -1.428832e+002 4.749999e+001 2.788185e+001
    endloop
  endfacet
  facet normal -0.000000e+000 -1.000000e+000 -0.000000e+000
    outer loop
      vertex   -1.428832e+002 4.649999e+001 3.238185e+001
      vertex   -1.633832e+002 4.649999e+001 3.238185e+001
      vertex   -1.428832e+002 4.649999e+001 2.888185e+001
    endloop
  endfacet
  facet normal -0.000000e+000 -1.000000e+000 -0.000000e+000
    outer loop
      vertex   -1.428832e+002 4.649999e+001 2.888185e+001
      vertex   -1.633832e+002 4.649999e+001 3.238185e+001
      vertex   -1.633832e+002 4.649999e+001 2.888185e+001
    endloop
  endfacet
  facet normal -0.000000e+000 -7.071068e-001 -7.071068e-001
    outer loop
      vertex   -1.428832e+002 4.649999e+001 2.888185e+001
      vertex   -1.633832e+002 4.649999e+001 2.888185e+001
      vertex   -1.428832e+002 4.749999e+001 2.788185e+001
    endloop
  endfacet
  facet normal 0.000000e+000 -7.071068e-001 -7.071068e-001
    outer loop
      vertex   -1.428832e+002 4.749999e+001 2.788185e+001
      vertex   -1.633832e+002 4.649999e+001 2.888185e+001
      vertex   -1.633832e+002 4.749999e+001 2.788185e+001
    endloop
  endfacet
  facet normal 1.000000e+000 -0.000000e+000 0.000000e+000
    outer loop
      vertex   -1.428832e+002 4.649999e+001 2.138185e+001
      vertex   -1.428832e+002 4.649999e+001 1.788185e+001
      vertex   -1.428832e+002 4.749999e+001 2.238185e+001
    endloop
  endfacet
  facet normal 1.000000e+000 0.000000e+000 0.000000e+000
    outer loop
      vertex   -1.428832e+002 4.749999e+001 2.238185e+001
      vertex   -1.428832e+002 4.649999e+001 1.788185e+001
      vertex   -1.428832e+002 4.749999e+001 1.688185e+001
    endloop
  endfacet
  facet normal 1.000000e+000 -0.000000e+000 0.000000e+000
    outer loop
      vertex   -1.428832e+002 4.849999e+001 2.238185e+001
      vertex   -1.428832e+002 4.749999e+001 1.688185e+001
      vertex   -1.428832e+002 4.849999e+001 1.688185e+001
    endloop
  endfacet
  facet normal 1.000000e+000 0.000000e+000 0.000000e+000
    outer loop
      vertex   -1.428832e+002 4.849999e+001 2.238185e+001
      vertex   -1.428832e+002 4.749999e+001 2.238185e+001
      vertex   -1.428832e+002 4.749999e+001 1.688185e+001
    endloop
  endfacet
  facet normal 0.000000e+000 -7.071068e-001 7.071068e-001
    outer loop
      vertex   -1.577500e+002 4.649999e+001 1.038185e+001
      vertex   -1.428832e+002 4.649999e+001 1.038185e+001
      vertex   -1.577500e+002 4.749999e+001 1.138185e+001
    endloop
  endfacet
  facet normal 0.000000e+000 -7.071068e-001 7.071068e-001
    outer loop
      vertex   -1.577500e+002 4.749999e+001 1.138185e+001
      vertex   -1.428832e+002 4.649999e+001 1.038185e+001
      vertex   -1.428832e+002 4.749999e+001 1.138185e+001
    endloop
  endfacet
  facet normal 1.000000e+000 -0.000000e+000 0.000000e+000
    outer loop
      vertex   -1.428832e+002 4.649999e+001 1.038185e+001
      vertex   -1.428832e+002 4.649999e+001 6.881846e+000
      vertex   -1.428832e+002 4.749999e+001 1.138185e+001
    endloop
  endfacet
  facet normal 1.000000e+000 0.000000e+000 0.000000e+000
    outer loop
      vertex   -1.428832e+002 4.749999e+001 1.138185e+001
      vertex   -1.428832e+002 4.649999e+001 6.881846e+000
      vertex   -1.428832e+002 4.749999e+001 5.881846e+000
    endloop
  endfacet
  facet normal 1.000000e+000 -0.000000e+000 0.000000e+000
    outer loop
      vertex   -1.428832e+002 4.849999e+001 1.138185e+001
      vertex   -1.428832e+002 4.749999e+001 5.881846e+000
      vertex   -1.428832e+002 4.849999e+001 5.881846e+000
    endloop
  endfacet
  facet normal 1.000000e+000 0.000000e+000 0.000000e+000
    outer loop
      vertex   -1.428832e+002 4.849999e+001 1.138185e+001
      vertex   -1.428832e+002 4.749999e+001 1.138185e+001
      vertex   -1.428832e+002 4.749999e+001 5.881846e+000
    endloop
  endfacet
  facet normal 0.000000e+000 -1.000000e+000 0.000000e+000
    outer loop
      vertex   -1.577500e+002 4.649999e+001 6.881846e+000
      vertex   -1.428832e+002 4.649999e+001 6.881846e+000
      vertex   -1.577500e+002 4.649999e+001 1.038185e+001
    endloop
  endfacet
  facet normal 0.000000e+000 -1.000000e+000 0.000000e+000
    outer loop
      vertex   -1.577500e+002 4.649999e+001 1.038185e+001
      vertex   -1.428832e+002 4.649999e+001 6.881846e+000
      vertex   -1.428832e+002 4.649999e+001 1.038185e+001
    endloop
  endfacet
  facet normal 0.000000e+000 -7.071068e-001 -7.071068e-001
    outer loop
      vertex   -1.577500e+002 4.749999e+001 5.881846e+000
      vertex   -1.428832e+002 4.749999e+001 5.881846e+000
      vertex   -1.577500e+002 4.649999e+001 6.881846e+000
    endloop
  endfacet
  facet normal 0.000000e+000 -7.071068e-001 -7.071068e-001
    outer loop
      vertex   -1.577500e+002 4.649999e+001 6.881846e+000
      vertex   -1.428832e+002 4.749999e+001 5.881846e+000
      vertex   -1.428832e+002 4.649999e+001 6.881846e+000
    endloop
  endfacet
  facet normal -1.000000e+000 0.000000e+000 0.000000e+000
    outer loop
      vertex   -1.633832e+002 4.649999e+001 2.888185e+001
      vertex   -1.633832e+002 4.649999e+001 3.238185e+001
      vertex   -1.633832e+002 4.749999e+001 2.788185e+001
    endloop
  endfacet
  facet normal -1.000000e+000 0.000000e+000 0.000000e+000
    outer loop
      vertex   -1.633832e+002 4.749999e+001 2.788185e+001
      vertex   -1.633832e+002 4.649999e+001 3.238185e+001
      vertex   -1.633832e+002 4.749999e+001 3.338185e+001
    endloop
  endfacet
  facet normal -1.000000e+000 0.000000e+000 0.000000e+000
    outer loop
      vertex   -1.633832e+002 4.849999e+001 2.788185e+001
      vertex   -1.633832e+002 4.749999e+001 3.338185e+001
      vertex   -1.633832e+002 4.849999e+001 3.338185e+001
    endloop
  endfacet
  facet normal -1.000000e+000 0.000000e+000 0.000000e+000
    outer loop
      vertex   -1.633832e+002 4.849999e+001 2.788185e+001
      vertex   -1.633832e+002 4.749999e+001 2.788185e+001
      vertex   -1.633832e+002 4.749999e+001 3.338185e+001
    endloop
  endfacet
  facet normal -0.000000e+000 0.000000e+000 1.000000e+000
    outer loop
      vertex   -1.633832e+002 4.849999e+001 3.338185e+001
      vertex   -1.633832e+002 4.749999e+001 3.338185e+001
      vertex   -1.632600e+002 4.849999e+001 3.338185e+001
    endloop
  endfacet
  facet normal -0.000000e+000 0.000000e+000 1.000000e+000
    outer loop
      vertex   -1.632600e+002 4.849999e+001 3.338185e+001
      vertex   -1.633832e+002 4.749999e+001 3.338185e+001
      vertex   -1.428832e+002 4.749999e+001 3.338185e+001
    endloop
  endfacet
  facet normal 0.000000e+000 0.000000e+000 1.000000e+000
    outer loop
      vertex   -1.428832e+002 4.849999e+001 3.338185e+001
      vertex   -1.632600e+002 4.849999e+001 3.338185e+001
      vertex   -1.428832e+002 4.749999e+001 3.338185e+001
    endloop
  endfacet
  facet normal -0.000000e+000 -0.000000e+000 -1.000000e+000
    outer loop
      vertex   -1.428832e+002 4.849999e+001 2.788185e+001
      vertex   -1.428832e+002 4.749999e+001 2.788185e+001
      vertex   -1.632600e+002 4.849999e+001 2.788185e+001
    endloop
  endfacet
  facet normal -0.000000e+000 -0.000000e+000 -1.000000e+000
    outer loop
      vertex   -1.632600e+002 4.849999e+001 2.788185e+001
      vertex   -1.428832e+002 4.749999e+001 2.788185e+001
      vertex   -1.633832e+002 4.749999e+001 2.788185e+001
    endloop
  endfacet
  facet normal 0.000000e+000 -0.000000e+000 -1.000000e+000
    outer loop
      vertex   -1.633832e+002 4.849999e+001 2.788185e+001
      vertex   -1.632600e+002 4.849999e+001 2.788185e+001
      vertex   -1.633832e+002 4.749999e+001 2.788185e+001
    endloop
  endfacet
  facet normal 0.000000e+000 1.000000e+000 0.000000e+000
    outer loop
      vertex   -1.632600e+002 4.849999e+001 3.338185e+001
      vertex   -1.632600e+002 4.849999e+001 2.788185e+001
      vertex   -1.633832e+002 4.849999e+001 3.338185e+001
    endloop
  endfacet
  facet normal 0.000000e+000 1.000000e+000 0.000000e+000
    outer loop
      vertex   -1.633832e+002 4.849999e+001 3.338185e+001
      vertex   -1.632600e+002 4.849999e+001 2.788185e+001
      vertex   -1.633832e+002 4.849999e+001 2.788185e+001
    endloop
  endfacet
  facet normal 0.000000e+000 0.000000e+000 -1.000000e+000
    outer loop
      vertex   -1.577500e+002 4.749999e+001 5.881846e+000
      vertex   -1.577500e+002 4.849999e+001 5.881846e+000
      vertex   -1.428832e+002 4.749999e+001 5.881846e+000
    endloop
  endfacet
  facet normal 0.000000e+000 0.000000e+000 -1.000000e+000
    outer loop
      vertex   -1.428832e+002 4.749999e+001 5.881846e+000
      vertex   -1.577500e+002 4.849999e+001 5.881846e+000
      vertex   -1.428832e+002 4.849999e+001 5.881846e+000
    endloop
  endfacet
  facet normal -0.000000e+000 1.000000e+000 0.000000e+000
    outer loop
      vertex   -1.632600e+002 5.049999e+001 2.600000e+001
      vertex   -1.632600e+002 5.049999e+001 3.702152e+001
      vertex   -1.577500e+002 5.049999e+001 2.600000e+001
    endloop
  endfacet
  facet normal 0.000000e+000 1.000000e+000 -0.000000e+000
    outer loop
      vertex   -1.577500e+002 5.049999e+001 2.600000e+001
      vertex   -1.632600e+002 5.049999e+001 3.702152e+001
      vertex   -1.428014e+002 5.049999e+001 3.702152e+001
    endloop
  endfacet
  facet normal 0.000000e+000 1.000000e+000 -0.000000e+000
    outer loop
      vertex   -1.428014e+002 5.049999e+001 1.000000e+000
      vertex   -1.577500e+002 5.049999e+001 2.600000e+001
      vertex   -1.428014e+002 5.049999e+001 3.702152e+001
    endloop
  endfacet
  facet normal 0.000000e+000 1.000000e+000 -0.000000e+000
    outer loop
      vertex   -1.428014e+002 5.049999e+001 1.000000e+000
      vertex   -1.577500e+002 5.049999e+001 4.000000e+000
      vertex   -1.577500e+002 5.049999e+001 2.600000e+001
    endloop
  endfacet
  facet normal 0.000000e+000 1.000000e+000 -0.000000e+000
    outer loop
      vertex   -1.428014e+002 5.049999e+001 1.000000e+000
      vertex   -1.632600e+002 5.049999e+001 1.000000e+000
      vertex   -1.577500e+002 5.049999e+001 4.000000e+000
    endloop
  endfacet
  facet normal 0.000000e+000 1.000000e+000 -0.000000e+000
    outer loop
      vertex   -1.577500e+002 5.049999e+001 4.000000e+000
      vertex   -1.632600e+002 5.049999e+001 1.000000e+000
      vertex   -1.632600e+002 5.049999e+001 4.000000e+000
    endloop
  endfacet
endsolid
