solid ascii
  facet normal 2.027822e-007 2.842171e-015 1.000000e+000
    outer loop
      vertex   -2.989823e+001 1.482994e+002 1.228931e+002
      vertex   -2.398606e+001 1.482994e+002 1.228931e+002
      vertex   -2.989823e+001 1.582994e+002 1.228931e+002
    endloop
  endfacet
  facet normal 2.027822e-007 9.947598e-015 1.000000e+000
    outer loop
      vertex   -2.989823e+001 1.582994e+002 1.228931e+002
      vertex   -2.398606e+001 1.482994e+002 1.228931e+002
      vertex   -2.398606e+001 1.582994e+002 1.228931e+002
    endloop
  endfacet
  facet normal -4.658118e-008 -7.105427e-015 -1.000000e+000
    outer loop
      vertex   -2.548606e+001 1.482994e+002 1.210931e+002
      vertex   -2.989823e+001 1.482994e+002 1.210931e+002
      vertex   -2.548606e+001 1.582994e+002 1.210931e+002
    endloop
  endfacet
  facet normal -4.658120e-008 1.421085e-015 -1.000000e+000
    outer loop
      vertex   -2.548606e+001 1.582994e+002 1.210931e+002
      vertex   -2.989823e+001 1.482994e+002 1.210931e+002
      vertex   -2.989823e+001 1.582994e+002 1.210931e+002
    endloop
  endfacet
  facet normal 1.000000e+000 1.749586e-029 2.462323e-015
    outer loop
      vertex   -2.348606e+001 1.482994e+002 1.137361e+002
      vertex   -2.348606e+001 1.582994e+002 1.137361e+002
      vertex   -2.348606e+001 1.482994e+002 1.223931e+002
    endloop
  endfacet
  facet normal 1.000000e+000 -3.499172e-030 2.462323e-015
    outer loop
      vertex   -2.348606e+001 1.482994e+002 1.223931e+002
      vertex   -2.348606e+001 1.582994e+002 1.137361e+002
      vertex   -2.348606e+001 1.582994e+002 1.223931e+002
    endloop
  endfacet
  facet normal 0.000000e+000 -7.105427e-015 -1.000000e+000
    outer loop
      vertex   -2.548606e+001 1.582994e+002 1.137361e+002
      vertex   -2.348606e+001 1.582994e+002 1.137361e+002
      vertex   -2.548606e+001 1.482994e+002 1.137361e+002
    endloop
  endfacet
  facet normal 0.000000e+000 -7.105427e-015 -1.000000e+000
    outer loop
      vertex   -2.548606e+001 1.482994e+002 1.137361e+002
      vertex   -2.348606e+001 1.582994e+002 1.137361e+002
      vertex   -2.348606e+001 1.482994e+002 1.137361e+002
    endloop
  endfacet
  facet normal -1.000000e+000 1.372495e-029 1.931615e-015
    outer loop
      vertex   -2.548606e+001 1.482994e+002 1.210931e+002
      vertex   -2.548606e+001 1.582994e+002 1.210931e+002
      vertex   -2.548606e+001 1.482994e+002 1.137361e+002
    endloop
  endfacet
  facet normal -1.000000e+000 1.372495e-029 1.931615e-015
    outer loop
      vertex   -2.548606e+001 1.482994e+002 1.137361e+002
      vertex   -2.548606e+001 1.582994e+002 1.210931e+002
      vertex   -2.548606e+001 1.582994e+002 1.137361e+002
    endloop
  endfacet
  facet normal -1.000000e+000 0.000000e+000 0.000000e+000
    outer loop
      vertex   -2.989823e+001 1.482994e+002 1.210931e+002
      vertex   -2.989823e+001 1.482994e+002 1.228931e+002
      vertex   -2.989823e+001 1.582994e+002 1.210931e+002
    endloop
  endfacet
  facet normal -1.000000e+000 0.000000e+000 0.000000e+000
    outer loop
      vertex   -2.989823e+001 1.582994e+002 1.210931e+002
      vertex   -2.989823e+001 1.482994e+002 1.228931e+002
      vertex   -2.989823e+001 1.582994e+002 1.228931e+002
    endloop
  endfacet
  facet normal -0.000000e+000 1.000000e+000 0.000000e+000
    outer loop
      vertex   -2.548606e+001 1.582994e+002 1.137361e+002
      vertex   -2.548606e+001 1.582994e+002 1.210931e+002
      vertex   -2.348606e+001 1.582994e+002 1.137361e+002
    endloop
  endfacet
  facet normal 2.415368e-014 1.000000e+000 6.566195e-015
    outer loop
      vertex   -2.348606e+001 1.582994e+002 1.137361e+002
      vertex   -2.548606e+001 1.582994e+002 1.210931e+002
      vertex   -2.348606e+001 1.582994e+002 1.223931e+002
    endloop
  endfacet
  facet normal 1.722528e-014 1.000000e+000 1.722528e-014
    outer loop
      vertex   -2.348606e+001 1.582994e+002 1.223931e+002
      vertex   -2.548606e+001 1.582994e+002 1.210931e+002
      vertex   -2.398606e+001 1.582994e+002 1.228931e+002
    endloop
  endfacet
  facet normal 9.614650e-015 1.000000e+000 2.356747e-014
    outer loop
      vertex   -2.398606e+001 1.582994e+002 1.228931e+002
      vertex   -2.548606e+001 1.582994e+002 1.210931e+002
      vertex   -2.989823e+001 1.582994e+002 1.228931e+002
    endloop
  endfacet
  facet normal 0.000000e+000 1.000000e+000 0.000000e+000
    outer loop
      vertex   -2.989823e+001 1.582994e+002 1.228931e+002
      vertex   -2.548606e+001 1.582994e+002 1.210931e+002
      vertex   -2.989823e+001 1.582994e+002 1.210931e+002
    endloop
  endfacet
  facet normal 7.071068e-001 7.034014e-015 7.071068e-001
    outer loop
      vertex   -2.398606e+001 1.482994e+002 1.228931e+002
      vertex   -2.348606e+001 1.482994e+002 1.223931e+002
      vertex   -2.398606e+001 1.582994e+002 1.228931e+002
    endloop
  endfacet
  facet normal 7.071068e-001 -1.004859e-015 7.071068e-001
    outer loop
      vertex   -2.398606e+001 1.582994e+002 1.228931e+002
      vertex   -2.348606e+001 1.482994e+002 1.223931e+002
      vertex   -2.348606e+001 1.582994e+002 1.223931e+002
    endloop
  endfacet
  facet normal 0.000000e+000 -1.000000e+000 1.158969e-014
    outer loop
      vertex   -2.548606e+001 1.482994e+002 1.137361e+002
      vertex   -2.348606e+001 1.482994e+002 1.137361e+002
      vertex   -2.548606e+001 1.482994e+002 1.210931e+002
    endloop
  endfacet
  facet normal -6.402041e-015 -1.000000e+000 9.849293e-015
    outer loop
      vertex   -2.548606e+001 1.482994e+002 1.210931e+002
      vertex   -2.348606e+001 1.482994e+002 1.137361e+002
      vertex   -2.348606e+001 1.482994e+002 1.223931e+002
    endloop
  endfacet
  facet normal 4.478572e-014 -1.000000e+000 -6.890111e-014
    outer loop
      vertex   -2.398606e+001 1.482994e+002 1.228931e+002
      vertex   -2.548606e+001 1.482994e+002 1.210931e+002
      vertex   -2.348606e+001 1.482994e+002 1.223931e+002
    endloop
  endfacet
  facet normal -6.403796e-021 -1.000000e+000 -3.157967e-014
    outer loop
      vertex   -2.398606e+001 1.482994e+002 1.228931e+002
      vertex   -2.989823e+001 1.482994e+002 1.228931e+002
      vertex   -2.548606e+001 1.482994e+002 1.210931e+002
    endloop
  endfacet
  facet normal 3.220831e-014 -1.000000e+000 4.736949e-014
    outer loop
      vertex   -2.548606e+001 1.482994e+002 1.210931e+002
      vertex   -2.989823e+001 1.482994e+002 1.228931e+002
      vertex   -2.989823e+001 1.482994e+002 1.210931e+002
    endloop
  endfacet
endsolid
solid ascii
  facet normal -0.000000e+000 -5.684342e-015 -1.000000e+000
    outer loop
      vertex   -1.902829e+002 1.482994e+002 1.137403e+002
      vertex   -1.922829e+002 1.482994e+002 1.137403e+002
      vertex   -1.902829e+002 1.582994e+002 1.137403e+002
    endloop
  endfacet
  facet normal 0.000000e+000 -5.684342e-015 -1.000000e+000
    outer loop
      vertex   -1.902829e+002 1.582994e+002 1.137403e+002
      vertex   -1.922829e+002 1.482994e+002 1.137403e+002
      vertex   -1.922829e+002 1.582994e+002 1.137403e+002
    endloop
  endfacet
  facet normal -7.071068e-001 2.009718e-015 7.071068e-001
    outer loop
      vertex   -1.917829e+002 1.582994e+002 1.228973e+002
      vertex   -1.922829e+002 1.582994e+002 1.223973e+002
      vertex   -1.917829e+002 1.482994e+002 1.228973e+002
    endloop
  endfacet
  facet normal -7.071068e-001 -1.004859e-015 7.071068e-001
    outer loop
      vertex   -1.917829e+002 1.482994e+002 1.228973e+002
      vertex   -1.922829e+002 1.582994e+002 1.223973e+002
      vertex   -1.922829e+002 1.482994e+002 1.223973e+002
    endloop
  endfacet
  facet normal -2.027822e-007 -2.842171e-015 1.000000e+000
    outer loop
      vertex   -1.858708e+002 1.582994e+002 1.228973e+002
      vertex   -1.917829e+002 1.582994e+002 1.228973e+002
      vertex   -1.858708e+002 1.482994e+002 1.228973e+002
    endloop
  endfacet
  facet normal -2.027822e-007 2.842171e-015 1.000000e+000
    outer loop
      vertex   -1.858708e+002 1.482994e+002 1.228973e+002
      vertex   -1.917829e+002 1.582994e+002 1.228973e+002
      vertex   -1.917829e+002 1.482994e+002 1.228973e+002
    endloop
  endfacet
  facet normal 1.000000e+000 0.000000e+000 -0.000000e+000
    outer loop
      vertex   -1.858708e+002 1.582994e+002 1.210973e+002
      vertex   -1.858708e+002 1.582994e+002 1.228973e+002
      vertex   -1.858708e+002 1.482994e+002 1.210973e+002
    endloop
  endfacet
  facet normal 1.000000e+000 0.000000e+000 -0.000000e+000
    outer loop
      vertex   -1.858708e+002 1.482994e+002 1.210973e+002
      vertex   -1.858708e+002 1.582994e+002 1.228973e+002
      vertex   -1.858708e+002 1.482994e+002 1.228973e+002
    endloop
  endfacet
  facet normal 4.658120e-008 -5.684342e-015 -1.000000e+000
    outer loop
      vertex   -1.902829e+002 1.582994e+002 1.210973e+002
      vertex   -1.858708e+002 1.582994e+002 1.210973e+002
      vertex   -1.902829e+002 1.482994e+002 1.210973e+002
    endloop
  endfacet
  facet normal 4.658118e-008 2.842171e-015 -1.000000e+000
    outer loop
      vertex   -1.902829e+002 1.482994e+002 1.210973e+002
      vertex   -1.858708e+002 1.582994e+002 1.210973e+002
      vertex   -1.858708e+002 1.482994e+002 1.210973e+002
    endloop
  endfacet
  facet normal 0.000000e+000 1.000000e+000 -0.000000e+000
    outer loop
      vertex   -1.902829e+002 1.582994e+002 1.137403e+002
      vertex   -1.922829e+002 1.582994e+002 1.137403e+002
      vertex   -1.902829e+002 1.582994e+002 1.210973e+002
    endloop
  endfacet
  facet normal -2.415368e-014 1.000000e+000 6.566195e-015
    outer loop
      vertex   -1.902829e+002 1.582994e+002 1.210973e+002
      vertex   -1.922829e+002 1.582994e+002 1.137403e+002
      vertex   -1.922829e+002 1.582994e+002 1.223973e+002
    endloop
  endfacet
  facet normal -1.291896e-013 1.000000e+000 -1.550275e-013
    outer loop
      vertex   -1.917829e+002 1.582994e+002 1.228973e+002
      vertex   -1.902829e+002 1.582994e+002 1.210973e+002
      vertex   -1.922829e+002 1.582994e+002 1.223973e+002
    endloop
  endfacet
  facet normal 1.442197e-014 1.000000e+000 -3.535120e-014
    outer loop
      vertex   -1.917829e+002 1.582994e+002 1.228973e+002
      vertex   -1.858708e+002 1.582994e+002 1.228973e+002
      vertex   -1.902829e+002 1.582994e+002 1.210973e+002
    endloop
  endfacet
  facet normal 1.288333e-014 1.000000e+000 -3.157966e-014
    outer loop
      vertex   -1.902829e+002 1.582994e+002 1.210973e+002
      vertex   -1.858708e+002 1.582994e+002 1.228973e+002
      vertex   -1.858708e+002 1.582994e+002 1.210973e+002
    endloop
  endfacet
  facet normal -1.000000e+000 0.000000e+000 0.000000e+000
    outer loop
      vertex   -1.922829e+002 1.582994e+002 1.137403e+002
      vertex   -1.922829e+002 1.482994e+002 1.137403e+002
      vertex   -1.922829e+002 1.582994e+002 1.223973e+002
    endloop
  endfacet
  facet normal -1.000000e+000 -0.000000e+000 0.000000e+000
    outer loop
      vertex   -1.922829e+002 1.582994e+002 1.223973e+002
      vertex   -1.922829e+002 1.482994e+002 1.137403e+002
      vertex   -1.922829e+002 1.482994e+002 1.223973e+002
    endloop
  endfacet
  facet normal 0.000000e+000 -1.000000e+000 -7.726462e-015
    outer loop
      vertex   -1.902829e+002 1.482994e+002 1.137403e+002
      vertex   -1.902829e+002 1.482994e+002 1.210973e+002
      vertex   -1.922829e+002 1.482994e+002 1.137403e+002
    endloop
  endfacet
  facet normal -4.268027e-015 -1.000000e+000 -6.566195e-015
    outer loop
      vertex   -1.922829e+002 1.482994e+002 1.137403e+002
      vertex   -1.902829e+002 1.482994e+002 1.210973e+002
      vertex   -1.922829e+002 1.482994e+002 1.223973e+002
    endloop
  endfacet
  facet normal 0.000000e+000 -1.000000e+000 0.000000e+000
    outer loop
      vertex   -1.922829e+002 1.482994e+002 1.223973e+002
      vertex   -1.902829e+002 1.482994e+002 1.210973e+002
      vertex   -1.917829e+002 1.482994e+002 1.228973e+002
    endloop
  endfacet
  facet normal 4.807322e-015 -1.000000e+000 4.006101e-015
    outer loop
      vertex   -1.917829e+002 1.482994e+002 1.228973e+002
      vertex   -1.902829e+002 1.482994e+002 1.210973e+002
      vertex   -1.858708e+002 1.482994e+002 1.228973e+002
    endloop
  endfacet
  facet normal -7.355089e-022 -1.000000e+000 1.578983e-014
    outer loop
      vertex   -1.858708e+002 1.482994e+002 1.228973e+002
      vertex   -1.902829e+002 1.482994e+002 1.210973e+002
      vertex   -1.858708e+002 1.482994e+002 1.210973e+002
    endloop
  endfacet
  facet normal 1.000000e+000 4.391985e-029 7.726462e-015
    outer loop
      vertex   -1.902829e+002 1.582994e+002 1.210973e+002
      vertex   -1.902829e+002 1.482994e+002 1.210973e+002
      vertex   -1.902829e+002 1.582994e+002 1.137403e+002
    endloop
  endfacet
  facet normal 1.000000e+000 4.391985e-029 7.726462e-015
    outer loop
      vertex   -1.902829e+002 1.582994e+002 1.137403e+002
      vertex   -1.902829e+002 1.482994e+002 1.210973e+002
      vertex   -1.902829e+002 1.482994e+002 1.137403e+002
    endloop
  endfacet
endsolid
solid ascii
  facet normal 2.027822e-007 5.684342e-015 1.000000e+000
    outer loop
      vertex   -2.989823e+001 6.829941e+001 1.228931e+002
      vertex   -2.398606e+001 6.829941e+001 1.228931e+002
      vertex   -2.989823e+001 7.829941e+001 1.228931e+002
    endloop
  endfacet
  facet normal 2.027822e-007 -0.000000e+000 1.000000e+000
    outer loop
      vertex   -2.989823e+001 7.829941e+001 1.228931e+002
      vertex   -2.398606e+001 6.829941e+001 1.228931e+002
      vertex   -2.398606e+001 7.829941e+001 1.228931e+002
    endloop
  endfacet
  facet normal -4.658120e-008 1.421085e-015 -1.000000e+000
    outer loop
      vertex   -2.548606e+001 6.829941e+001 1.210931e+002
      vertex   -2.989823e+001 6.829941e+001 1.210931e+002
      vertex   -2.548606e+001 7.829941e+001 1.210931e+002
    endloop
  endfacet
  facet normal -4.658119e-008 -4.263256e-015 -1.000000e+000
    outer loop
      vertex   -2.548606e+001 7.829941e+001 1.210931e+002
      vertex   -2.989823e+001 6.829941e+001 1.210931e+002
      vertex   -2.989823e+001 7.829941e+001 1.210931e+002
    endloop
  endfacet
  facet normal 1.000000e+000 -0.000000e+000 2.462323e-015
    outer loop
      vertex   -2.348606e+001 6.829941e+001 1.137361e+002
      vertex   -2.348606e+001 7.829941e+001 1.137361e+002
      vertex   -2.348606e+001 6.829941e+001 1.223931e+002
    endloop
  endfacet
  facet normal 1.000000e+000 1.049752e-029 2.462323e-015
    outer loop
      vertex   -2.348606e+001 6.829941e+001 1.223931e+002
      vertex   -2.348606e+001 7.829941e+001 1.137361e+002
      vertex   -2.348606e+001 7.829941e+001 1.223931e+002
    endloop
  endfacet
  facet normal 0.000000e+000 -0.000000e+000 -1.000000e+000
    outer loop
      vertex   -2.548606e+001 7.829941e+001 1.137361e+002
      vertex   -2.348606e+001 7.829941e+001 1.137361e+002
      vertex   -2.548606e+001 6.829941e+001 1.137361e+002
    endloop
  endfacet
  facet normal 0.000000e+000 0.000000e+000 -1.000000e+000
    outer loop
      vertex   -2.548606e+001 6.829941e+001 1.137361e+002
      vertex   -2.348606e+001 7.829941e+001 1.137361e+002
      vertex   -2.348606e+001 6.829941e+001 1.137361e+002
    endloop
  endfacet
  facet normal -1.000000e+000 -2.744991e-030 1.931615e-015
    outer loop
      vertex   -2.548606e+001 6.829941e+001 1.210931e+002
      vertex   -2.548606e+001 7.829941e+001 1.210931e+002
      vertex   -2.548606e+001 6.829941e+001 1.137361e+002
    endloop
  endfacet
  facet normal -1.000000e+000 0.000000e+000 1.931615e-015
    outer loop
      vertex   -2.548606e+001 6.829941e+001 1.137361e+002
      vertex   -2.548606e+001 7.829941e+001 1.210931e+002
      vertex   -2.548606e+001 7.829941e+001 1.137361e+002
    endloop
  endfacet
  facet normal -1.000000e+000 0.000000e+000 0.000000e+000
    outer loop
      vertex   -2.989823e+001 6.829941e+001 1.210931e+002
      vertex   -2.989823e+001 6.829941e+001 1.228931e+002
      vertex   -2.989823e+001 7.829941e+001 1.210931e+002
    endloop
  endfacet
  facet normal -1.000000e+000 0.000000e+000 0.000000e+000
    outer loop
      vertex   -2.989823e+001 7.829941e+001 1.210931e+002
      vertex   -2.989823e+001 6.829941e+001 1.228931e+002
      vertex   -2.989823e+001 7.829941e+001 1.228931e+002
    endloop
  endfacet
  facet normal 0.000000e+000 1.000000e+000 -5.794846e-015
    outer loop
      vertex   -2.548606e+001 7.829941e+001 1.137361e+002
      vertex   -2.548606e+001 7.829941e+001 1.210931e+002
      vertex   -2.348606e+001 7.829941e+001 1.137361e+002
    endloop
  endfacet
  facet normal 7.566207e-014 1.000000e+000 1.477394e-014
    outer loop
      vertex   -2.348606e+001 7.829941e+001 1.137361e+002
      vertex   -2.548606e+001 7.829941e+001 1.210931e+002
      vertex   -2.348606e+001 7.829941e+001 1.223931e+002
    endloop
  endfacet
  facet normal 1.972294e-013 1.000000e+000 -1.722528e-013
    outer loop
      vertex   -2.348606e+001 7.829941e+001 1.223931e+002
      vertex   -2.548606e+001 7.829941e+001 1.210931e+002
      vertex   -2.398606e+001 7.829941e+001 1.228931e+002
    endloop
  endfacet
  facet normal -2.403662e-015 1.000000e+000 -5.891867e-015
    outer loop
      vertex   -2.398606e+001 7.829941e+001 1.228931e+002
      vertex   -2.548606e+001 7.829941e+001 1.210931e+002
      vertex   -2.989823e+001 7.829941e+001 1.228931e+002
    endloop
  endfacet
  facet normal -1.610416e-014 1.000000e+000 -3.947457e-014
    outer loop
      vertex   -2.989823e+001 7.829941e+001 1.228931e+002
      vertex   -2.548606e+001 7.829941e+001 1.210931e+002
      vertex   -2.989823e+001 7.829941e+001 1.210931e+002
    endloop
  endfacet
  facet normal 7.071068e-001 0.000000e+000 7.071068e-001
    outer loop
      vertex   -2.398606e+001 6.829941e+001 1.228931e+002
      vertex   -2.348606e+001 6.829941e+001 1.223931e+002
      vertex   -2.398606e+001 7.829941e+001 1.228931e+002
    endloop
  endfacet
  facet normal 7.071068e-001 3.014578e-015 7.071068e-001
    outer loop
      vertex   -2.398606e+001 7.829941e+001 1.228931e+002
      vertex   -2.348606e+001 6.829941e+001 1.223931e+002
      vertex   -2.348606e+001 7.829941e+001 1.223931e+002
    endloop
  endfacet
  facet normal 0.000000e+000 -1.000000e+000 0.000000e+000
    outer loop
      vertex   -2.548606e+001 6.829941e+001 1.137361e+002
      vertex   -2.348606e+001 6.829941e+001 1.137361e+002
      vertex   -2.548606e+001 6.829941e+001 1.210931e+002
    endloop
  endfacet
  facet normal 0.000000e+000 -1.000000e+000 0.000000e+000
    outer loop
      vertex   -2.548606e+001 6.829941e+001 1.210931e+002
      vertex   -2.348606e+001 6.829941e+001 1.137361e+002
      vertex   -2.348606e+001 6.829941e+001 1.223931e+002
    endloop
  endfacet
  facet normal 0.000000e+000 -1.000000e+000 -0.000000e+000
    outer loop
      vertex   -2.398606e+001 6.829941e+001 1.228931e+002
      vertex   -2.548606e+001 6.829941e+001 1.210931e+002
      vertex   -2.348606e+001 6.829941e+001 1.223931e+002
    endloop
  endfacet
  facet normal -9.614644e-015 -1.000000e+000 8.012203e-015
    outer loop
      vertex   -2.398606e+001 6.829941e+001 1.228931e+002
      vertex   -2.989823e+001 6.829941e+001 1.228931e+002
      vertex   -2.548606e+001 6.829941e+001 1.210931e+002
    endloop
  endfacet
  facet normal 1.471018e-021 -1.000000e+000 3.157966e-014
    outer loop
      vertex   -2.548606e+001 6.829941e+001 1.210931e+002
      vertex   -2.989823e+001 6.829941e+001 1.228931e+002
      vertex   -2.989823e+001 6.829941e+001 1.210931e+002
    endloop
  endfacet
endsolid
solid ascii
  facet normal -0.000000e+000 -5.684342e-015 -1.000000e+000
    outer loop
      vertex   -1.902829e+002 6.829941e+001 1.137403e+002
      vertex   -1.922829e+002 6.829941e+001 1.137403e+002
      vertex   -1.902829e+002 7.829941e+001 1.137403e+002
    endloop
  endfacet
  facet normal 0.000000e+000 -5.684342e-015 -1.000000e+000
    outer loop
      vertex   -1.902829e+002 7.829941e+001 1.137403e+002
      vertex   -1.922829e+002 6.829941e+001 1.137403e+002
      vertex   -1.922829e+002 7.829941e+001 1.137403e+002
    endloop
  endfacet
  facet normal -7.071068e-001 3.014578e-015 7.071068e-001
    outer loop
      vertex   -1.917829e+002 7.829941e+001 1.228973e+002
      vertex   -1.922829e+002 7.829941e+001 1.223973e+002
      vertex   -1.917829e+002 6.829941e+001 1.228973e+002
    endloop
  endfacet
  facet normal -7.071068e-001 -2.009718e-015 7.071068e-001
    outer loop
      vertex   -1.917829e+002 6.829941e+001 1.228973e+002
      vertex   -1.922829e+002 7.829941e+001 1.223973e+002
      vertex   -1.922829e+002 6.829941e+001 1.223973e+002
    endloop
  endfacet
  facet normal -2.027822e-007 0.000000e+000 1.000000e+000
    outer loop
      vertex   -1.858708e+002 7.829941e+001 1.228973e+002
      vertex   -1.917829e+002 7.829941e+001 1.228973e+002
      vertex   -1.858708e+002 6.829941e+001 1.228973e+002
    endloop
  endfacet
  facet normal -2.027822e-007 4.263256e-015 1.000000e+000
    outer loop
      vertex   -1.858708e+002 6.829941e+001 1.228973e+002
      vertex   -1.917829e+002 7.829941e+001 1.228973e+002
      vertex   -1.917829e+002 6.829941e+001 1.228973e+002
    endloop
  endfacet
  facet normal 1.000000e+000 0.000000e+000 -0.000000e+000
    outer loop
      vertex   -1.858708e+002 7.829941e+001 1.210973e+002
      vertex   -1.858708e+002 7.829941e+001 1.228973e+002
      vertex   -1.858708e+002 6.829941e+001 1.210973e+002
    endloop
  endfacet
  facet normal 1.000000e+000 0.000000e+000 -0.000000e+000
    outer loop
      vertex   -1.858708e+002 6.829941e+001 1.210973e+002
      vertex   -1.858708e+002 7.829941e+001 1.228973e+002
      vertex   -1.858708e+002 6.829941e+001 1.228973e+002
    endloop
  endfacet
  facet normal 4.658119e-008 -5.684342e-015 -1.000000e+000
    outer loop
      vertex   -1.902829e+002 7.829941e+001 1.210973e+002
      vertex   -1.858708e+002 7.829941e+001 1.210973e+002
      vertex   -1.902829e+002 6.829941e+001 1.210973e+002
    endloop
  endfacet
  facet normal 4.658118e-008 -4.263256e-015 -1.000000e+000
    outer loop
      vertex   -1.902829e+002 6.829941e+001 1.210973e+002
      vertex   -1.858708e+002 7.829941e+001 1.210973e+002
      vertex   -1.858708e+002 6.829941e+001 1.210973e+002
    endloop
  endfacet
  facet normal 0.000000e+000 1.000000e+000 -1.158969e-014
    outer loop
      vertex   -1.902829e+002 7.829941e+001 1.137403e+002
      vertex   -1.922829e+002 7.829941e+001 1.137403e+002
      vertex   -1.902829e+002 7.829941e+001 1.210973e+002
    endloop
  endfacet
  facet normal -3.055572e-014 1.000000e+000 -3.283098e-015
    outer loop
      vertex   -1.902829e+002 7.829941e+001 1.210973e+002
      vertex   -1.922829e+002 7.829941e+001 1.137403e+002
      vertex   -1.922829e+002 7.829941e+001 1.223973e+002
    endloop
  endfacet
  facet normal -5.081457e-014 1.000000e+000 -3.445056e-014
    outer loop
      vertex   -1.917829e+002 7.829941e+001 1.228973e+002
      vertex   -1.902829e+002 7.829941e+001 1.210973e+002
      vertex   -1.922829e+002 7.829941e+001 1.223973e+002
    endloop
  endfacet
  facet normal 4.807320e-015 1.000000e+000 1.190102e-014
    outer loop
      vertex   -1.917829e+002 7.829941e+001 1.228973e+002
      vertex   -1.858708e+002 7.829941e+001 1.228973e+002
      vertex   -1.902829e+002 7.829941e+001 1.210973e+002
    endloop
  endfacet
  facet normal 1.932499e-014 1.000000e+000 -2.368474e-014
    outer loop
      vertex   -1.902829e+002 7.829941e+001 1.210973e+002
      vertex   -1.858708e+002 7.829941e+001 1.228973e+002
      vertex   -1.858708e+002 7.829941e+001 1.210973e+002
    endloop
  endfacet
  facet normal -1.000000e+000 0.000000e+000 0.000000e+000
    outer loop
      vertex   -1.922829e+002 7.829941e+001 1.137403e+002
      vertex   -1.922829e+002 6.829941e+001 1.137403e+002
      vertex   -1.922829e+002 7.829941e+001 1.223973e+002
    endloop
  endfacet
  facet normal -1.000000e+000 -0.000000e+000 0.000000e+000
    outer loop
      vertex   -1.922829e+002 7.829941e+001 1.223973e+002
      vertex   -1.922829e+002 6.829941e+001 1.137403e+002
      vertex   -1.922829e+002 6.829941e+001 1.223973e+002
    endloop
  endfacet
  facet normal 0.000000e+000 -1.000000e+000 -1.352131e-014
    outer loop
      vertex   -1.902829e+002 6.829941e+001 1.137403e+002
      vertex   -1.902829e+002 6.829941e+001 1.210973e+002
      vertex   -1.922829e+002 6.829941e+001 1.137403e+002
    endloop
  endfacet
  facet normal -1.954589e-014 -1.000000e+000 -8.207744e-015
    outer loop
      vertex   -1.922829e+002 6.829941e+001 1.137403e+002
      vertex   -1.902829e+002 6.829941e+001 1.210973e+002
      vertex   -1.922829e+002 6.829941e+001 1.223973e+002
    endloop
  endfacet
  facet normal 2.497665e-014 -1.000000e+000 6.028847e-014
    outer loop
      vertex   -1.922829e+002 6.829941e+001 1.223973e+002
      vertex   -1.902829e+002 6.829941e+001 1.210973e+002
      vertex   -1.917829e+002 6.829941e+001 1.228973e+002
    endloop
  endfacet
  facet normal -9.614652e-015 -1.000000e+000 3.146239e-014
    outer loop
      vertex   -1.917829e+002 6.829941e+001 1.228973e+002
      vertex   -1.902829e+002 6.829941e+001 1.210973e+002
      vertex   -1.858708e+002 6.829941e+001 1.228973e+002
    endloop
  endfacet
  facet normal 3.220831e-015 -1.000000e+000 0.000000e+000
    outer loop
      vertex   -1.858708e+002 6.829941e+001 1.228973e+002
      vertex   -1.902829e+002 6.829941e+001 1.210973e+002
      vertex   -1.858708e+002 6.829941e+001 1.210973e+002
    endloop
  endfacet
  facet normal 1.000000e+000 4.391985e-029 7.726462e-015
    outer loop
      vertex   -1.902829e+002 7.829941e+001 1.210973e+002
      vertex   -1.902829e+002 6.829941e+001 1.210973e+002
      vertex   -1.902829e+002 7.829941e+001 1.137403e+002
    endloop
  endfacet
  facet normal 1.000000e+000 4.391985e-029 7.726462e-015
    outer loop
      vertex   -1.902829e+002 7.829941e+001 1.137403e+002
      vertex   -1.902829e+002 6.829941e+001 1.210973e+002
      vertex   -1.902829e+002 6.829941e+001 1.137403e+002
    endloop
  endfacet
endsolid
