solid ascii
  facet normal 7.071068e-001 7.071068e-001 5.024296e-016
    outer loop
      vertex   -2.375000e+001 1.802748e+002 3.702152e+001
      vertex   -2.375000e+001 1.802748e+002 2.702152e+001
      vertex   -2.475000e+001 1.812748e+002 3.702152e+001
    endloop
  endfacet
  facet normal 7.071068e-001 7.071068e-001 -2.009718e-015
    outer loop
      vertex   -2.475000e+001 1.812748e+002 3.702152e+001
      vertex   -2.375000e+001 1.802748e+002 2.702152e+001
      vertex   -2.475000e+001 1.812748e+002 2.702152e+001
    endloop
  endfacet
  facet normal 0.000000e+000 1.000000e+000 -2.842171e-015
    outer loop
      vertex   -2.475000e+001 1.812748e+002 2.702152e+001
      vertex   -6.403271e+001 1.812748e+002 2.702152e+001
      vertex   -2.475000e+001 1.812748e+002 3.702152e+001
    endloop
  endfacet
  facet normal 0.000000e+000 1.000000e+000 -2.842171e-015
    outer loop
      vertex   -2.475000e+001 1.812748e+002 3.702152e+001
      vertex   -6.403271e+001 1.812748e+002 2.702152e+001
      vertex   -6.403271e+001 1.812748e+002 3.702152e+001
    endloop
  endfacet
  facet normal 0.000000e+000 1.000000e+000 -2.842171e-015
    outer loop
      vertex   -6.403271e+001 1.812748e+002 3.702152e+001
      vertex   -6.403271e+001 1.812748e+002 2.702152e+001
      vertex   -1.033154e+002 1.812748e+002 2.702152e+001
    endloop
  endfacet
  facet normal 7.235171e-016 1.000000e+000 -2.842171e-015
    outer loop
      vertex   -1.033154e+002 1.812748e+002 3.702152e+001
      vertex   -1.033154e+002 1.812748e+002 2.702152e+001
      vertex   -1.425981e+002 1.812748e+002 2.702152e+001
    endloop
  endfacet
  facet normal -0.000000e+000 1.000000e+000 0.000000e+000
    outer loop
      vertex   -1.425981e+002 1.812748e+002 3.702152e+001
      vertex   -1.033154e+002 1.812748e+002 3.702152e+001
      vertex   -1.425981e+002 1.812748e+002 2.702152e+001
    endloop
  endfacet
  facet normal 0.000000e+000 1.000000e+000 -2.842171e-015
    outer loop
      vertex   -6.403271e+001 1.812748e+002 3.702152e+001
      vertex   -1.033154e+002 1.812748e+002 2.702152e+001
      vertex   -1.033154e+002 1.812748e+002 3.702152e+001
    endloop
  endfacet
  facet normal 0.000000e+000 -0.000000e+000 -1.000000e+000
    outer loop
      vertex   -6.403271e+001 1.812748e+002 2.702152e+001
      vertex   -2.475000e+001 1.812748e+002 2.702152e+001
      vertex   -2.575000e+001 1.792748e+002 2.702152e+001
    endloop
  endfacet
  facet normal 0.000000e+000 0.000000e+000 -1.000000e+000
    outer loop
      vertex   -6.469937e+001 1.792748e+002 2.702152e+001
      vertex   -6.403271e+001 1.812748e+002 2.702152e+001
      vertex   -2.575000e+001 1.792748e+002 2.702152e+001
    endloop
  endfacet
  facet normal 0.000000e+000 0.000000e+000 -1.000000e+000
    outer loop
      vertex   -6.469937e+001 1.792748e+002 2.702152e+001
      vertex   -1.033154e+002 1.812748e+002 2.702152e+001
      vertex   -6.403271e+001 1.812748e+002 2.702152e+001
    endloop
  endfacet
  facet normal 0.000000e+000 0.000000e+000 -1.000000e+000
    outer loop
      vertex   -6.469937e+001 1.792748e+002 2.702152e+001
      vertex   -1.036487e+002 1.792748e+002 2.702152e+001
      vertex   -1.033154e+002 1.812748e+002 2.702152e+001
    endloop
  endfacet
  facet normal -9.043964e-017 1.507327e-017 -1.000000e+000
    outer loop
      vertex   -1.033154e+002 1.812748e+002 2.702152e+001
      vertex   -1.036487e+002 1.792748e+002 2.702152e+001
      vertex   -1.425981e+002 1.812748e+002 2.702152e+001
    endloop
  endfacet
  facet normal 0.000000e+000 1.776357e-015 -1.000000e+000
    outer loop
      vertex   -1.425981e+002 1.812748e+002 2.702152e+001
      vertex   -1.036487e+002 1.792748e+002 2.702152e+001
      vertex   -1.425981e+002 1.792748e+002 2.702152e+001
    endloop
  endfacet
  facet normal -2.131628e-014 1.065814e-014 -1.000000e+000
    outer loop
      vertex   -2.475000e+001 1.812748e+002 2.702152e+001
      vertex   -2.375000e+001 1.802748e+002 2.702152e+001
      vertex   -2.575000e+001 1.792748e+002 2.702152e+001
    endloop
  endfacet
  facet normal -1.582387e-014 -3.266863e-016 -1.000000e+000
    outer loop
      vertex   -2.575000e+001 1.792748e+002 2.702152e+001
      vertex   -2.375000e+001 1.802748e+002 2.702152e+001
      vertex   -2.375000e+001 1.367748e+002 2.702152e+001
    endloop
  endfacet
  facet normal -1.418321e-014 -1.658855e-016 -1.000000e+000
    outer loop
      vertex   -2.575000e+001 1.364415e+002 2.702152e+001
      vertex   -2.375000e+001 1.367748e+002 2.702152e+001
      vertex   -2.575000e+001 9.360812e+001 2.702152e+001
    endloop
  endfacet
  facet normal -1.416938e-014 -2.488282e-016 -1.000000e+000
    outer loop
      vertex   -2.575000e+001 1.364415e+002 2.702152e+001
      vertex   -2.575000e+001 1.792748e+002 2.702152e+001
      vertex   -2.375000e+001 1.367748e+002 2.702152e+001
    endloop
  endfacet
  facet normal -1.423808e-014 -1.633432e-016 -1.000000e+000
    outer loop
      vertex   -2.375000e+001 1.367748e+002 2.702152e+001
      vertex   -2.375000e+001 9.327479e+001 2.702152e+001
      vertex   -2.575000e+001 9.360812e+001 2.702152e+001
    endloop
  endfacet
  facet normal -1.414174e-014 4.147137e-016 -1.000000e+000
    outer loop
      vertex   -2.575000e+001 9.360812e+001 2.702152e+001
      vertex   -2.375000e+001 9.327479e+001 2.702152e+001
      vertex   -2.575000e+001 5.077479e+001 2.702152e+001
    endloop
  endfacet
  facet normal -1.225074e-016 -2.450147e-016 -1.000000e+000
    outer loop
      vertex   -2.575000e+001 5.077479e+001 2.702152e+001
      vertex   -2.375000e+001 9.327479e+001 2.702152e+001
      vertex   -2.375000e+001 4.977479e+001 2.702152e+001
    endloop
  endfacet
  facet normal -1.065814e-014 -2.131628e-014 -1.000000e+000
    outer loop
      vertex   -2.475000e+001 4.877479e+001 2.702152e+001
      vertex   -2.575000e+001 5.077479e+001 2.702152e+001
      vertex   -2.375000e+001 4.977479e+001 2.702152e+001
    endloop
  endfacet
  facet normal -0.000000e+000 -1.598721e-014 -1.000000e+000
    outer loop
      vertex   -2.475000e+001 4.877479e+001 2.702152e+001
      vertex   -6.403271e+001 4.877479e+001 2.702152e+001
      vertex   -2.575000e+001 5.077479e+001 2.702152e+001
    endloop
  endfacet
  facet normal 0.000000e+000 -1.598721e-014 -1.000000e+000
    outer loop
      vertex   -2.575000e+001 5.077479e+001 2.702152e+001
      vertex   -6.403271e+001 4.877479e+001 2.702152e+001
      vertex   -6.476713e+001 5.077479e+001 2.702152e+001
    endloop
  endfacet
  facet normal -0.000000e+000 -1.598721e-014 -1.000000e+000
    outer loop
      vertex   -6.476713e+001 5.077479e+001 2.702152e+001
      vertex   -6.403271e+001 4.877479e+001 2.702152e+001
      vertex   -1.033154e+002 4.877479e+001 2.702152e+001
    endloop
  endfacet
  facet normal -0.000000e+000 -1.598721e-014 -1.000000e+000
    outer loop
      vertex   -1.037843e+002 5.077479e+001 2.702152e+001
      vertex   -1.033154e+002 4.877479e+001 2.702152e+001
      vertex   -1.425981e+002 4.877479e+001 2.702152e+001
    endloop
  endfacet
  facet normal -7.176773e-016 -2.059299e-015 -1.000000e+000
    outer loop
      vertex   -1.425981e+002 5.049999e+001 2.702152e+001
      vertex   -1.037843e+002 5.077479e+001 2.702152e+001
      vertex   -1.425981e+002 4.877479e+001 2.702152e+001
    endloop
  endfacet
  facet normal 0.000000e+000 -1.034290e-013 -1.000000e+000
    outer loop
      vertex   -1.425981e+002 5.049999e+001 2.702152e+001
      vertex   -1.428014e+002 5.077479e+001 2.702152e+001
      vertex   -1.037843e+002 5.077479e+001 2.702152e+001
    endloop
  endfacet
  facet normal -0.000000e+000 -1.034290e-013 -1.000000e+000
    outer loop
      vertex   -1.425981e+002 5.049999e+001 2.702152e+001
      vertex   -1.428014e+002 5.049999e+001 2.702152e+001
      vertex   -1.428014e+002 5.077479e+001 2.702152e+001
    endloop
  endfacet
  facet normal 0.000000e+000 -1.598721e-014 -1.000000e+000
    outer loop
      vertex   -6.476713e+001 5.077479e+001 2.702152e+001
      vertex   -1.033154e+002 4.877479e+001 2.702152e+001
      vertex   -1.037843e+002 5.077479e+001 2.702152e+001
    endloop
  endfacet
  facet normal 1.000000e+000 2.450147e-016 7.105427e-016
    outer loop
      vertex   -2.375000e+001 1.802748e+002 3.702152e+001
      vertex   -2.375000e+001 1.367748e+002 3.702152e+001
      vertex   -2.375000e+001 1.802748e+002 2.702152e+001
    endloop
  endfacet
  facet normal 1.000000e+000 2.450147e-016 7.105427e-016
    outer loop
      vertex   -2.375000e+001 1.802748e+002 2.702152e+001
      vertex   -2.375000e+001 1.367748e+002 3.702152e+001
      vertex   -2.375000e+001 1.367748e+002 2.702152e+001
    endloop
  endfacet
  facet normal 1.000000e+000 1.633432e-016 7.105427e-016
    outer loop
      vertex   -2.375000e+001 1.367748e+002 2.702152e+001
      vertex   -2.375000e+001 1.367748e+002 3.702152e+001
      vertex   -2.375000e+001 9.327479e+001 3.702152e+001
    endloop
  endfacet
  facet normal 1.000000e+000 3.266863e-016 7.105427e-016
    outer loop
      vertex   -2.375000e+001 9.327479e+001 2.702152e+001
      vertex   -2.375000e+001 9.327479e+001 3.702152e+001
      vertex   -2.375000e+001 4.977479e+001 3.702152e+001
    endloop
  endfacet
  facet normal 1.000000e+000 2.450147e-016 3.552714e-016
    outer loop
      vertex   -2.375000e+001 4.977479e+001 2.702152e+001
      vertex   -2.375000e+001 9.327479e+001 2.702152e+001
      vertex   -2.375000e+001 4.977479e+001 3.702152e+001
    endloop
  endfacet
  facet normal 1.000000e+000 1.633432e-016 7.105427e-016
    outer loop
      vertex   -2.375000e+001 1.367748e+002 2.702152e+001
      vertex   -2.375000e+001 9.327479e+001 3.702152e+001
      vertex   -2.375000e+001 9.327479e+001 2.702152e+001
    endloop
  endfacet
  facet normal 7.071068e-001 -7.071068e-001 2.512148e-016
    outer loop
      vertex   -2.375000e+001 4.977479e+001 2.702152e+001
      vertex   -2.375000e+001 4.977479e+001 3.702152e+001
      vertex   -2.475000e+001 4.877479e+001 2.702152e+001
    endloop
  endfacet
  facet normal 7.071068e-001 -7.071068e-001 0.000000e+000
    outer loop
      vertex   -2.475000e+001 4.877479e+001 2.702152e+001
      vertex   -2.375000e+001 4.977479e+001 3.702152e+001
      vertex   -2.475000e+001 4.877479e+001 3.702152e+001
    endloop
  endfacet
  facet normal -0.000000e+000 -1.000000e+000 -0.000000e+000
    outer loop
      vertex   -2.475000e+001 4.877479e+001 3.702152e+001
      vertex   -6.403271e+001 4.877479e+001 3.702152e+001
      vertex   -2.475000e+001 4.877479e+001 2.702152e+001
    endloop
  endfacet
  facet normal -0.000000e+000 -1.000000e+000 -0.000000e+000
    outer loop
      vertex   -2.475000e+001 4.877479e+001 2.702152e+001
      vertex   -6.403271e+001 4.877479e+001 3.702152e+001
      vertex   -6.403271e+001 4.877479e+001 2.702152e+001
    endloop
  endfacet
  facet normal 0.000000e+000 -1.000000e+000 0.000000e+000
    outer loop
      vertex   -6.403271e+001 4.877479e+001 2.702152e+001
      vertex   -6.403271e+001 4.877479e+001 3.702152e+001
      vertex   -1.033154e+002 4.877479e+001 3.702152e+001
    endloop
  endfacet
  facet normal 0.000000e+000 -1.000000e+000 0.000000e+000
    outer loop
      vertex   -1.033154e+002 4.877479e+001 2.702152e+001
      vertex   -1.033154e+002 4.877479e+001 3.702152e+001
      vertex   -1.425981e+002 4.877479e+001 3.702152e+001
    endloop
  endfacet
  facet normal 0.000000e+000 -1.000000e+000 0.000000e+000
    outer loop
      vertex   -1.425981e+002 4.877479e+001 2.702152e+001
      vertex   -1.033154e+002 4.877479e+001 2.702152e+001
      vertex   -1.425981e+002 4.877479e+001 3.702152e+001
    endloop
  endfacet
  facet normal -0.000000e+000 -1.000000e+000 -0.000000e+000
    outer loop
      vertex   -6.403271e+001 4.877479e+001 2.702152e+001
      vertex   -1.033154e+002 4.877479e+001 3.702152e+001
      vertex   -1.033154e+002 4.877479e+001 2.702152e+001
    endloop
  endfacet
  facet normal -8.167158e-017 1.633432e-016 1.000000e+000
    outer loop
      vertex   -2.375000e+001 1.367748e+002 3.702152e+001
      vertex   -2.375000e+001 1.802748e+002 3.702152e+001
      vertex   -2.575000e+001 1.792748e+002 3.702152e+001
    endloop
  endfacet
  facet normal -2.764758e-017 1.658855e-016 1.000000e+000
    outer loop
      vertex   -2.575000e+001 1.364415e+002 3.702152e+001
      vertex   -2.375000e+001 1.367748e+002 3.702152e+001
      vertex   -2.575000e+001 1.792748e+002 3.702152e+001
    endloop
  endfacet
  facet normal -5.529515e-017 3.317709e-016 1.000000e+000
    outer loop
      vertex   -2.575000e+001 1.364415e+002 3.702152e+001
      vertex   -2.575000e+001 9.360812e+001 3.702152e+001
      vertex   -2.375000e+001 1.367748e+002 3.702152e+001
    endloop
  endfacet
  facet normal 5.444772e-017 3.266863e-016 1.000000e+000
    outer loop
      vertex   -2.375000e+001 1.367748e+002 3.702152e+001
      vertex   -2.575000e+001 9.360812e+001 3.702152e+001
      vertex   -2.375000e+001 9.327479e+001 3.702152e+001
    endloop
  endfacet
  facet normal -8.294273e-017 -4.976564e-016 1.000000e+000
    outer loop
      vertex   -2.375000e+001 9.327479e+001 3.702152e+001
      vertex   -2.575000e+001 9.360812e+001 3.702152e+001
      vertex   -2.575000e+001 5.077479e+001 3.702152e+001
    endloop
  endfacet
  facet normal -9.473903e-015 9.473903e-015 1.000000e+000
    outer loop
      vertex   -2.375000e+001 4.977479e+001 3.702152e+001
      vertex   -2.575000e+001 5.077479e+001 3.702152e+001
      vertex   -2.475000e+001 4.877479e+001 3.702152e+001
    endloop
  endfacet
  facet normal -1.412918e-014 1.633432e-016 1.000000e+000
    outer loop
      vertex   -2.375000e+001 4.977479e+001 3.702152e+001
      vertex   -2.375000e+001 9.327479e+001 3.702152e+001
      vertex   -2.575000e+001 5.077479e+001 3.702152e+001
    endloop
  endfacet
  facet normal 0.000000e+000 0.000000e+000 1.000000e+000
    outer loop
      vertex   -2.375000e+001 1.802748e+002 3.702152e+001
      vertex   -2.475000e+001 1.812748e+002 3.702152e+001
      vertex   -2.575000e+001 1.792748e+002 3.702152e+001
    endloop
  endfacet
  facet normal 0.000000e+000 -0.000000e+000 1.000000e+000
    outer loop
      vertex   -2.575000e+001 1.792748e+002 3.702152e+001
      vertex   -2.475000e+001 1.812748e+002 3.702152e+001
      vertex   -6.403271e+001 1.812748e+002 3.702152e+001
    endloop
  endfacet
  facet normal 0.000000e+000 -0.000000e+000 1.000000e+000
    outer loop
      vertex   -6.469937e+001 1.792748e+002 3.702152e+001
      vertex   -6.403271e+001 1.812748e+002 3.702152e+001
      vertex   -1.033154e+002 1.812748e+002 3.702152e+001
    endloop
  endfacet
  facet normal 0.000000e+000 -0.000000e+000 1.000000e+000
    outer loop
      vertex   -1.036487e+002 1.792748e+002 3.702152e+001
      vertex   -1.033154e+002 1.812748e+002 3.702152e+001
      vertex   -1.425981e+002 1.812748e+002 3.702152e+001
    endloop
  endfacet
  facet normal 0.000000e+000 -0.000000e+000 1.000000e+000
    outer loop
      vertex   -1.425981e+002 1.792748e+002 3.702152e+001
      vertex   -1.036487e+002 1.792748e+002 3.702152e+001
      vertex   -1.425981e+002 1.812748e+002 3.702152e+001
    endloop
  endfacet
  facet normal 0.000000e+000 0.000000e+000 1.000000e+000
    outer loop
      vertex   -2.575000e+001 1.792748e+002 3.702152e+001
      vertex   -6.403271e+001 1.812748e+002 3.702152e+001
      vertex   -6.469937e+001 1.792748e+002 3.702152e+001
    endloop
  endfacet
  facet normal 0.000000e+000 0.000000e+000 1.000000e+000
    outer loop
      vertex   -6.469937e+001 1.792748e+002 3.702152e+001
      vertex   -1.033154e+002 1.812748e+002 3.702152e+001
      vertex   -1.036487e+002 1.792748e+002 3.702152e+001
    endloop
  endfacet
  facet normal 0.000000e+000 1.421085e-014 1.000000e+000
    outer loop
      vertex   -2.475000e+001 4.877479e+001 3.702152e+001
      vertex   -2.575000e+001 5.077479e+001 3.702152e+001
      vertex   -6.403271e+001 4.877479e+001 3.702152e+001
    endloop
  endfacet
  facet normal 0.000000e+000 1.421085e-014 1.000000e+000
    outer loop
      vertex   -6.403271e+001 4.877479e+001 3.702152e+001
      vertex   -2.575000e+001 5.077479e+001 3.702152e+001
      vertex   -6.476713e+001 5.077479e+001 3.702152e+001
    endloop
  endfacet
  facet normal 0.000000e+000 1.421085e-014 1.000000e+000
    outer loop
      vertex   -1.033154e+002 4.877479e+001 3.702152e+001
      vertex   -6.476713e+001 5.077479e+001 3.702152e+001
      vertex   -1.037843e+002 5.077479e+001 3.702152e+001
    endloop
  endfacet
  facet normal 7.322567e-016 0.000000e+000 1.000000e+000
    outer loop
      vertex   -1.425981e+002 4.877479e+001 3.702152e+001
      vertex   -1.037843e+002 5.077479e+001 3.702152e+001
      vertex   -1.425981e+002 5.049999e+001 3.702152e+001
    endloop
  endfacet
  facet normal -0.000000e+000 1.421085e-014 1.000000e+000
    outer loop
      vertex   -1.425981e+002 4.877479e+001 3.702152e+001
      vertex   -1.033154e+002 4.877479e+001 3.702152e+001
      vertex   -1.037843e+002 5.077479e+001 3.702152e+001
    endloop
  endfacet
  facet normal 0.000000e+000 1.421085e-014 1.000000e+000
    outer loop
      vertex   -6.403271e+001 4.877479e+001 3.702152e+001
      vertex   -6.476713e+001 5.077479e+001 3.702152e+001
      vertex   -1.033154e+002 4.877479e+001 3.702152e+001
    endloop
  endfacet
  facet normal 1.092663e-015 -5.090625e-014 1.000000e+000
    outer loop
      vertex   -1.037843e+002 5.077479e+001 3.702152e+001
      vertex   -1.428014e+002 5.077479e+001 3.702152e+001
      vertex   -1.425981e+002 5.049999e+001 3.702152e+001
    endloop
  endfacet
  facet normal 6.991136e-014 0.000000e+000 1.000000e+000
    outer loop
      vertex   -1.425981e+002 5.049999e+001 3.702152e+001
      vertex   -1.428014e+002 5.077479e+001 3.702152e+001
      vertex   -1.428014e+002 5.049999e+001 3.702152e+001
    endloop
  endfacet
  facet normal -1.000000e+000 1.421085e-014 0.000000e+000
    outer loop
      vertex   -1.425981e+002 1.792748e+002 2.702152e+001
      vertex   -1.425981e+002 1.792748e+002 3.702152e+001
      vertex   -1.425981e+002 1.812748e+002 2.702152e+001
    endloop
  endfacet
  facet normal -1.000000e+000 1.421085e-014 0.000000e+000
    outer loop
      vertex   -1.425981e+002 1.812748e+002 2.702152e+001
      vertex   -1.425981e+002 1.792748e+002 3.702152e+001
      vertex   -1.425981e+002 1.812748e+002 3.702152e+001
    endloop
  endfacet
  facet normal 0.000000e+000 -1.000000e+000 0.000000e+000
    outer loop
      vertex   -1.425981e+002 1.792748e+002 2.702152e+001
      vertex   -1.036487e+002 1.792748e+002 2.702152e+001
      vertex   -1.425981e+002 1.792748e+002 3.702152e+001
    endloop
  endfacet
  facet normal 0.000000e+000 -1.000000e+000 0.000000e+000
    outer loop
      vertex   -1.425981e+002 1.792748e+002 3.702152e+001
      vertex   -1.036487e+002 1.792748e+002 2.702152e+001
      vertex   -1.036487e+002 1.792748e+002 3.702152e+001
    endloop
  endfacet
  facet normal 0.000000e+000 -1.000000e+000 -0.000000e+000
    outer loop
      vertex   -1.036487e+002 1.792748e+002 3.702152e+001
      vertex   -1.036487e+002 1.792748e+002 2.702152e+001
      vertex   -6.469937e+001 1.792748e+002 2.702152e+001
    endloop
  endfacet
  facet normal 0.000000e+000 -1.000000e+000 0.000000e+000
    outer loop
      vertex   -6.469937e+001 1.792748e+002 3.702152e+001
      vertex   -6.469937e+001 1.792748e+002 2.702152e+001
      vertex   -2.575000e+001 1.792748e+002 2.702152e+001
    endloop
  endfacet
  facet normal -0.000000e+000 -1.000000e+000 -0.000000e+000
    outer loop
      vertex   -2.575000e+001 1.792748e+002 3.702152e+001
      vertex   -6.469937e+001 1.792748e+002 3.702152e+001
      vertex   -2.575000e+001 1.792748e+002 2.702152e+001
    endloop
  endfacet
  facet normal 0.000000e+000 -1.000000e+000 0.000000e+000
    outer loop
      vertex   -1.036487e+002 1.792748e+002 3.702152e+001
      vertex   -6.469937e+001 1.792748e+002 2.702152e+001
      vertex   -6.469937e+001 1.792748e+002 3.702152e+001
    endloop
  endfacet
  facet normal -1.000000e+000 0.000000e+000 0.000000e+000
    outer loop
      vertex   -1.428014e+002 5.049999e+001 2.702152e+001
      vertex   -1.428014e+002 5.049999e+001 3.702152e+001
      vertex   -1.428014e+002 5.077479e+001 2.702152e+001
    endloop
  endfacet
  facet normal -1.000000e+000 0.000000e+000 0.000000e+000
    outer loop
      vertex   -1.428014e+002 5.077479e+001 2.702152e+001
      vertex   -1.428014e+002 5.049999e+001 3.702152e+001
      vertex   -1.428014e+002 5.077479e+001 3.702152e+001
    endloop
  endfacet
  facet normal -3.495568e-014 -1.000000e+000 7.105427e-016
    outer loop
      vertex   -1.428014e+002 5.049999e+001 3.702152e+001
      vertex   -1.428014e+002 5.049999e+001 2.702152e+001
      vertex   -1.425981e+002 5.049999e+001 3.702152e+001
    endloop
  endfacet
  facet normal 0.000000e+000 -1.000000e+000 -0.000000e+000
    outer loop
      vertex   -1.425981e+002 5.049999e+001 3.702152e+001
      vertex   -1.428014e+002 5.049999e+001 2.702152e+001
      vertex   -1.425981e+002 5.049999e+001 2.702152e+001
    endloop
  endfacet
  facet normal 0.000000e+000 1.000000e+000 -0.000000e+000
    outer loop
      vertex   -2.575000e+001 5.077479e+001 2.702152e+001
      vertex   -6.476713e+001 5.077479e+001 2.702152e+001
      vertex   -2.575000e+001 5.077479e+001 3.702152e+001
    endloop
  endfacet
  facet normal 0.000000e+000 1.000000e+000 -0.000000e+000
    outer loop
      vertex   -2.575000e+001 5.077479e+001 3.702152e+001
      vertex   -6.476713e+001 5.077479e+001 2.702152e+001
      vertex   -6.476713e+001 5.077479e+001 3.702152e+001
    endloop
  endfacet
  facet normal 0.000000e+000 1.000000e+000 0.000000e+000
    outer loop
      vertex   -6.476713e+001 5.077479e+001 3.702152e+001
      vertex   -6.476713e+001 5.077479e+001 2.702152e+001
      vertex   -1.037843e+002 5.077479e+001 2.702152e+001
    endloop
  endfacet
  facet normal 0.000000e+000 1.000000e+000 0.000000e+000
    outer loop
      vertex   -1.037843e+002 5.077479e+001 3.702152e+001
      vertex   -1.037843e+002 5.077479e+001 2.702152e+001
      vertex   -1.428014e+002 5.077479e+001 2.702152e+001
    endloop
  endfacet
  facet normal 0.000000e+000 1.000000e+000 0.000000e+000
    outer loop
      vertex   -1.428014e+002 5.077479e+001 3.702152e+001
      vertex   -1.037843e+002 5.077479e+001 3.702152e+001
      vertex   -1.428014e+002 5.077479e+001 2.702152e+001
    endloop
  endfacet
  facet normal 0.000000e+000 1.000000e+000 -0.000000e+000
    outer loop
      vertex   -6.476713e+001 5.077479e+001 3.702152e+001
      vertex   -1.037843e+002 5.077479e+001 2.702152e+001
      vertex   -1.037843e+002 5.077479e+001 3.702152e+001
    endloop
  endfacet
  facet normal -1.000000e+000 -0.000000e+000 -0.000000e+000
    outer loop
      vertex   -1.425981e+002 5.049999e+001 3.702152e+001
      vertex   -1.425981e+002 5.049999e+001 2.702152e+001
      vertex   -1.425981e+002 4.877479e+001 3.702152e+001
    endloop
  endfacet
  facet normal -1.000000e+000 -0.000000e+000 -0.000000e+000
    outer loop
      vertex   -1.425981e+002 4.877479e+001 3.702152e+001
      vertex   -1.425981e+002 5.049999e+001 2.702152e+001
      vertex   -1.425981e+002 4.877479e+001 2.702152e+001
    endloop
  endfacet
  facet normal -1.000000e+000 -4.976564e-016 -1.065814e-015
    outer loop
      vertex   -2.575000e+001 1.792748e+002 2.702152e+001
      vertex   -2.575000e+001 1.364415e+002 2.702152e+001
      vertex   -2.575000e+001 1.792748e+002 3.702152e+001
    endloop
  endfacet
  facet normal -1.000000e+000 -5.805991e-016 -7.105427e-016
    outer loop
      vertex   -2.575000e+001 1.792748e+002 3.702152e+001
      vertex   -2.575000e+001 1.364415e+002 2.702152e+001
      vertex   -2.575000e+001 1.364415e+002 3.702152e+001
    endloop
  endfacet
  facet normal -1.000000e+000 -1.658855e-016 -7.105427e-016
    outer loop
      vertex   -2.575000e+001 1.364415e+002 3.702152e+001
      vertex   -2.575000e+001 1.364415e+002 2.702152e+001
      vertex   -2.575000e+001 9.360812e+001 2.702152e+001
    endloop
  endfacet
  facet normal -1.000000e+000 8.294273e-017 -7.105427e-016
    outer loop
      vertex   -2.575000e+001 9.360812e+001 3.702152e+001
      vertex   -2.575000e+001 9.360812e+001 2.702152e+001
      vertex   -2.575000e+001 5.077479e+001 2.702152e+001
    endloop
  endfacet
  facet normal -1.000000e+000 1.768031e-031 -3.552714e-016
    outer loop
      vertex   -2.575000e+001 5.077479e+001 3.702152e+001
      vertex   -2.575000e+001 9.360812e+001 3.702152e+001
      vertex   -2.575000e+001 5.077479e+001 2.702152e+001
    endloop
  endfacet
  facet normal -1.000000e+000 -1.658855e-016 -7.105427e-016
    outer loop
      vertex   -2.575000e+001 1.364415e+002 3.702152e+001
      vertex   -2.575000e+001 9.360812e+001 2.702152e+001
      vertex   -2.575000e+001 9.360812e+001 3.702152e+001
    endloop
  endfacet
endsolid
