solid ascii
  facet normal -7.071068e-001 -7.071068e-001 -0.000000e+000
    outer loop
      vertex   -1.927500e+002 4.977479e+001 3.702152e+001
      vertex   -1.927500e+002 4.977479e+001 2.702152e+001
      vertex   -1.917500e+002 4.877479e+001 3.702152e+001
    endloop
  endfacet
  facet normal -7.071068e-001 -7.071068e-001 0.000000e+000
    outer loop
      vertex   -1.917500e+002 4.877479e+001 3.702152e+001
      vertex   -1.927500e+002 4.977479e+001 2.702152e+001
      vertex   -1.917500e+002 4.877479e+001 2.702152e+001
    endloop
  endfacet
  facet normal -1.000000e+000 -6.533726e-016 0.000000e+000
    outer loop
      vertex   -1.927500e+002 4.977479e+001 3.702152e+001
      vertex   -1.927500e+002 9.327479e+001 3.702152e+001
      vertex   -1.927500e+002 4.977479e+001 2.702152e+001
    endloop
  endfacet
  facet normal -1.000000e+000 -6.963738e-031 -2.842171e-015
    outer loop
      vertex   -1.927500e+002 4.977479e+001 2.702152e+001
      vertex   -1.927500e+002 9.327479e+001 3.702152e+001
      vertex   -1.927500e+002 9.327479e+001 2.702152e+001
    endloop
  endfacet
  facet normal -1.000000e+000 -6.533726e-016 -2.842171e-015
    outer loop
      vertex   -1.927500e+002 9.327479e+001 2.702152e+001
      vertex   -1.927500e+002 9.327479e+001 3.702152e+001
      vertex   -1.927500e+002 1.367748e+002 3.702152e+001
    endloop
  endfacet
  facet normal -1.000000e+000 -4.642492e-031 -2.842171e-015
    outer loop
      vertex   -1.927500e+002 1.367748e+002 2.702152e+001
      vertex   -1.927500e+002 1.367748e+002 3.702152e+001
      vertex   -1.927500e+002 1.802748e+002 3.702152e+001
    endloop
  endfacet
  facet normal -1.000000e+000 -6.533726e-016 0.000000e+000
    outer loop
      vertex   -1.927500e+002 1.802748e+002 2.702152e+001
      vertex   -1.927500e+002 1.367748e+002 2.702152e+001
      vertex   -1.927500e+002 1.802748e+002 3.702152e+001
    endloop
  endfacet
  facet normal -1.000000e+000 -6.533726e-016 -2.842171e-015
    outer loop
      vertex   -1.927500e+002 9.327479e+001 2.702152e+001
      vertex   -1.927500e+002 1.367748e+002 3.702152e+001
      vertex   -1.927500e+002 1.367748e+002 2.702152e+001
    endloop
  endfacet
  facet normal 1.130335e-014 1.633432e-016 1.000000e+000
    outer loop
      vertex   -1.927500e+002 9.327479e+001 3.702152e+001
      vertex   -1.927500e+002 4.977479e+001 3.702152e+001
      vertex   -1.902500e+002 5.077479e+001 3.702152e+001
    endloop
  endfacet
  facet normal 6.635419e-017 -4.976564e-016 1.000000e+000
    outer loop
      vertex   -1.902500e+002 9.360812e+001 3.702152e+001
      vertex   -1.927500e+002 9.327479e+001 3.702152e+001
      vertex   -1.902500e+002 5.077479e+001 3.702152e+001
    endloop
  endfacet
  facet normal -4.355818e-017 3.266863e-016 1.000000e+000
    outer loop
      vertex   -1.902500e+002 9.360812e+001 3.702152e+001
      vertex   -1.927500e+002 1.367748e+002 3.702152e+001
      vertex   -1.927500e+002 9.327479e+001 3.702152e+001
    endloop
  endfacet
  facet normal 4.423612e-017 3.317709e-016 1.000000e+000
    outer loop
      vertex   -1.902500e+002 9.360812e+001 3.702152e+001
      vertex   -1.902500e+002 1.364415e+002 3.702152e+001
      vertex   -1.927500e+002 1.367748e+002 3.702152e+001
    endloop
  endfacet
  facet normal 2.211806e-017 1.658855e-016 1.000000e+000
    outer loop
      vertex   -1.927500e+002 1.367748e+002 3.702152e+001
      vertex   -1.902500e+002 1.364415e+002 3.702152e+001
      vertex   -1.902500e+002 1.792748e+002 3.702152e+001
    endloop
  endfacet
  facet normal -0.000000e+000 -0.000000e+000 1.000000e+000
    outer loop
      vertex   -1.927500e+002 1.802748e+002 3.702152e+001
      vertex   -1.902500e+002 1.792748e+002 3.702152e+001
      vertex   -1.917500e+002 1.812748e+002 3.702152e+001
    endloop
  endfacet
  facet normal 6.533726e-017 1.633432e-016 1.000000e+000
    outer loop
      vertex   -1.927500e+002 1.802748e+002 3.702152e+001
      vertex   -1.927500e+002 1.367748e+002 3.702152e+001
      vertex   -1.902500e+002 1.792748e+002 3.702152e+001
    endloop
  endfacet
  facet normal 8.120488e-015 8.120488e-015 1.000000e+000
    outer loop
      vertex   -1.927500e+002 4.977479e+001 3.702152e+001
      vertex   -1.917500e+002 4.877479e+001 3.702152e+001
      vertex   -1.902500e+002 5.077479e+001 3.702152e+001
    endloop
  endfacet
  facet normal -0.000000e+000 1.421085e-014 1.000000e+000
    outer loop
      vertex   -1.902500e+002 5.077479e+001 3.702152e+001
      vertex   -1.917500e+002 4.877479e+001 3.702152e+001
      vertex   -1.633567e+002 4.877479e+001 3.702152e+001
    endloop
  endfacet
  facet normal -1.056832e-015 0.000000e+000 1.000000e+000
    outer loop
      vertex   -1.633567e+002 5.049999e+001 3.702152e+001
      vertex   -1.902500e+002 5.077479e+001 3.702152e+001
      vertex   -1.633567e+002 4.877479e+001 3.702152e+001
    endloop
  endfacet
  facet normal -1.579566e-015 -5.115848e-014 1.000000e+000
    outer loop
      vertex   -1.633567e+002 5.049999e+001 3.702152e+001
      vertex   -1.632600e+002 5.077479e+001 3.702152e+001
      vertex   -1.902500e+002 5.077479e+001 3.702152e+001
    endloop
  endfacet
  facet normal -1.469120e-013 0.000000e+000 1.000000e+000
    outer loop
      vertex   -1.633567e+002 5.049999e+001 3.702152e+001
      vertex   -1.632600e+002 5.049999e+001 3.702152e+001
      vertex   -1.632600e+002 5.077479e+001 3.702152e+001
    endloop
  endfacet
  facet normal 0.000000e+000 0.000000e+000 1.000000e+000
    outer loop
      vertex   -1.633014e+002 1.792748e+002 3.702152e+001
      vertex   -1.633981e+002 1.795000e+002 3.702152e+001
      vertex   -1.902500e+002 1.792748e+002 3.702152e+001
    endloop
  endfacet
  facet normal 0.000000e+000 -0.000000e+000 1.000000e+000
    outer loop
      vertex   -1.633014e+002 1.792748e+002 3.702152e+001
      vertex   -1.633014e+002 1.795000e+002 3.702152e+001
      vertex   -1.633981e+002 1.795000e+002 3.702152e+001
    endloop
  endfacet
  facet normal 0.000000e+000 -0.000000e+000 1.000000e+000
    outer loop
      vertex   -1.633981e+002 1.795000e+002 3.702152e+001
      vertex   -1.633981e+002 1.812748e+002 3.702152e+001
      vertex   -1.902500e+002 1.792748e+002 3.702152e+001
    endloop
  endfacet
  facet normal 0.000000e+000 -0.000000e+000 1.000000e+000
    outer loop
      vertex   -1.902500e+002 1.792748e+002 3.702152e+001
      vertex   -1.633981e+002 1.812748e+002 3.702152e+001
      vertex   -1.917500e+002 1.812748e+002 3.702152e+001
    endloop
  endfacet
  facet normal -7.071068e-001 7.071068e-001 0.000000e+000
    outer loop
      vertex   -1.927500e+002 1.802748e+002 2.702152e+001
      vertex   -1.927500e+002 1.802748e+002 3.702152e+001
      vertex   -1.917500e+002 1.812748e+002 2.702152e+001
    endloop
  endfacet
  facet normal -7.071068e-001 7.071068e-001 -2.009718e-015
    outer loop
      vertex   -1.917500e+002 1.812748e+002 2.702152e+001
      vertex   -1.927500e+002 1.802748e+002 3.702152e+001
      vertex   -1.917500e+002 1.812748e+002 3.702152e+001
    endloop
  endfacet
  facet normal 1.000000e+000 6.635419e-016 2.842171e-015
    outer loop
      vertex   -1.902500e+002 5.077479e+001 2.702152e+001
      vertex   -1.902500e+002 9.360812e+001 2.702152e+001
      vertex   -1.902500e+002 5.077479e+001 3.702152e+001
    endloop
  endfacet
  facet normal 1.000000e+000 -0.000000e+000 0.000000e+000
    outer loop
      vertex   -1.902500e+002 5.077479e+001 3.702152e+001
      vertex   -1.902500e+002 9.360812e+001 2.702152e+001
      vertex   -1.902500e+002 9.360812e+001 3.702152e+001
    endloop
  endfacet
  facet normal 1.000000e+000 0.000000e+000 0.000000e+000
    outer loop
      vertex   -1.902500e+002 9.360812e+001 3.702152e+001
      vertex   -1.902500e+002 9.360812e+001 2.702152e+001
      vertex   -1.902500e+002 1.364415e+002 2.702152e+001
    endloop
  endfacet
  facet normal 1.000000e+000 -6.635419e-016 1.885899e-030
    outer loop
      vertex   -1.902500e+002 1.364415e+002 3.702152e+001
      vertex   -1.902500e+002 1.364415e+002 2.702152e+001
      vertex   -1.902500e+002 1.792748e+002 2.702152e+001
    endloop
  endfacet
  facet normal 1.000000e+000 4.714748e-031 2.842171e-015
    outer loop
      vertex   -1.902500e+002 1.792748e+002 3.702152e+001
      vertex   -1.902500e+002 1.364415e+002 3.702152e+001
      vertex   -1.902500e+002 1.792748e+002 2.702152e+001
    endloop
  endfacet
  facet normal 1.000000e+000 -0.000000e+000 0.000000e+000
    outer loop
      vertex   -1.902500e+002 9.360812e+001 3.702152e+001
      vertex   -1.902500e+002 1.364415e+002 2.702152e+001
      vertex   -1.902500e+002 1.364415e+002 3.702152e+001
    endloop
  endfacet
  facet normal -0.000000e+000 -1.000000e+000 -1.952216e-015
    outer loop
      vertex   -1.633567e+002 4.877479e+001 3.702152e+001
      vertex   -1.917500e+002 4.877479e+001 3.702152e+001
      vertex   -1.633832e+002 4.877479e+001 3.338185e+001
    endloop
  endfacet
  facet normal 0.000000e+000 -1.000000e+000 -1.952216e-015
    outer loop
      vertex   -1.633567e+002 4.877479e+001 3.338185e+001
      vertex   -1.633567e+002 4.877479e+001 3.702152e+001
      vertex   -1.633832e+002 4.877479e+001 3.338185e+001
    endloop
  endfacet
  facet normal -1.033404e-030 -1.000000e+000 8.258974e-015
    outer loop
      vertex   -1.633567e+002 4.877479e+001 2.702152e+001
      vertex   -1.633832e+002 4.877479e+001 2.788185e+001
      vertex   -1.917500e+002 4.877479e+001 2.702152e+001
    endloop
  endfacet
  facet normal -2.677485e-013 -1.000000e+000 0.000000e+000
    outer loop
      vertex   -1.633567e+002 4.877479e+001 2.702152e+001
      vertex   -1.633567e+002 4.877479e+001 2.788185e+001
      vertex   -1.633832e+002 4.877479e+001 2.788185e+001
    endloop
  endfacet
  facet normal 2.504841e-016 -1.000000e+000 0.000000e+000
    outer loop
      vertex   -1.633832e+002 4.877479e+001 2.788185e+001
      vertex   -1.633832e+002 4.877479e+001 3.338185e+001
      vertex   -1.917500e+002 4.877479e+001 2.702152e+001
    endloop
  endfacet
  facet normal 2.504841e-016 -1.000000e+000 0.000000e+000
    outer loop
      vertex   -1.917500e+002 4.877479e+001 2.702152e+001
      vertex   -1.633832e+002 4.877479e+001 3.338185e+001
      vertex   -1.917500e+002 4.877479e+001 3.702152e+001
    endloop
  endfacet
  facet normal 1.251250e-016 -1.608106e-014 -1.000000e+000
    outer loop
      vertex   -1.633567e+002 4.877479e+001 2.702152e+001
      vertex   -1.917500e+002 4.877479e+001 2.702152e+001
      vertex   -1.902500e+002 5.077479e+001 2.702152e+001
    endloop
  endfacet
  facet normal 0.000000e+000 -1.034290e-013 -1.000000e+000
    outer loop
      vertex   -1.633567e+002 5.049999e+001 2.702152e+001
      vertex   -1.902500e+002 5.077479e+001 2.702152e+001
      vertex   -1.632600e+002 5.077479e+001 2.702152e+001
    endloop
  endfacet
  facet normal -0.000000e+000 -1.034290e-013 -1.000000e+000
    outer loop
      vertex   -1.632600e+002 5.049999e+001 2.702152e+001
      vertex   -1.633567e+002 5.049999e+001 2.702152e+001
      vertex   -1.632600e+002 5.077479e+001 2.702152e+001
    endloop
  endfacet
  facet normal 9.135549e-015 -2.283887e-014 -1.000000e+000
    outer loop
      vertex   -1.917500e+002 4.877479e+001 2.702152e+001
      vertex   -1.927500e+002 4.977479e+001 2.702152e+001
      vertex   -1.902500e+002 5.077479e+001 2.702152e+001
    endloop
  endfacet
  facet normal 9.800589e-017 -2.450147e-016 -1.000000e+000
    outer loop
      vertex   -1.902500e+002 5.077479e+001 2.702152e+001
      vertex   -1.927500e+002 4.977479e+001 2.702152e+001
      vertex   -1.927500e+002 9.327479e+001 2.702152e+001
    endloop
  endfacet
  facet normal 1.139046e-014 -1.633432e-016 -1.000000e+000
    outer loop
      vertex   -1.902500e+002 9.360812e+001 2.702152e+001
      vertex   -1.927500e+002 9.327479e+001 2.702152e+001
      vertex   -1.927500e+002 1.367748e+002 2.702152e+001
    endloop
  endfacet
  facet normal 1.133551e-014 -2.488282e-016 -1.000000e+000
    outer loop
      vertex   -1.902500e+002 1.364415e+002 2.702152e+001
      vertex   -1.927500e+002 1.367748e+002 2.702152e+001
      vertex   -1.902500e+002 1.792748e+002 2.702152e+001
    endloop
  endfacet
  facet normal 1.134657e-014 -1.658855e-016 -1.000000e+000
    outer loop
      vertex   -1.902500e+002 1.364415e+002 2.702152e+001
      vertex   -1.902500e+002 9.360812e+001 2.702152e+001
      vertex   -1.927500e+002 1.367748e+002 2.702152e+001
    endloop
  endfacet
  facet normal 1.131339e-014 4.147137e-016 -1.000000e+000
    outer loop
      vertex   -1.902500e+002 5.077479e+001 2.702152e+001
      vertex   -1.927500e+002 9.327479e+001 2.702152e+001
      vertex   -1.902500e+002 9.360812e+001 2.702152e+001
    endloop
  endfacet
  facet normal 1.265909e-014 -3.266863e-016 -1.000000e+000
    outer loop
      vertex   -1.927500e+002 1.367748e+002 2.702152e+001
      vertex   -1.927500e+002 1.802748e+002 2.702152e+001
      vertex   -1.902500e+002 1.792748e+002 2.702152e+001
    endloop
  endfacet
  facet normal 1.827110e-014 1.370332e-014 -1.000000e+000
    outer loop
      vertex   -1.902500e+002 1.792748e+002 2.702152e+001
      vertex   -1.927500e+002 1.802748e+002 2.702152e+001
      vertex   -1.917500e+002 1.812748e+002 2.702152e+001
    endloop
  endfacet
  facet normal -0.000000e+000 0.000000e+000 -1.000000e+000
    outer loop
      vertex   -1.633981e+002 1.812748e+002 2.702152e+001
      vertex   -1.902500e+002 1.792748e+002 2.702152e+001
      vertex   -1.917500e+002 1.812748e+002 2.702152e+001
    endloop
  endfacet
  facet normal 0.000000e+000 -0.000000e+000 -1.000000e+000
    outer loop
      vertex   -1.633981e+002 1.812748e+002 2.702152e+001
      vertex   -1.633981e+002 1.795000e+002 2.702152e+001
      vertex   -1.902500e+002 1.792748e+002 2.702152e+001
    endloop
  endfacet
  facet normal 0.000000e+000 0.000000e+000 -1.000000e+000
    outer loop
      vertex   -1.902500e+002 1.792748e+002 2.702152e+001
      vertex   -1.633981e+002 1.795000e+002 2.702152e+001
      vertex   -1.633014e+002 1.792748e+002 2.702152e+001
    endloop
  endfacet
  facet normal 0.000000e+000 0.000000e+000 -1.000000e+000
    outer loop
      vertex   -1.633014e+002 1.792748e+002 2.702152e+001
      vertex   -1.633981e+002 1.795000e+002 2.702152e+001
      vertex   -1.633014e+002 1.795000e+002 2.702152e+001
    endloop
  endfacet
  facet normal 1.014748e-015 -4.118597e-015 -1.000000e+000
    outer loop
      vertex   -1.633567e+002 4.877479e+001 2.702152e+001
      vertex   -1.902500e+002 5.077479e+001 2.702152e+001
      vertex   -1.633567e+002 5.049999e+001 2.702152e+001
    endloop
  endfacet
  facet normal 0.000000e+000 1.000000e+000 -2.842171e-015
    outer loop
      vertex   -1.917500e+002 1.812748e+002 3.702152e+001
      vertex   -1.633981e+002 1.812748e+002 3.702152e+001
      vertex   -1.917500e+002 1.812748e+002 2.702152e+001
    endloop
  endfacet
  facet normal -1.002463e-015 1.000000e+000 0.000000e+000
    outer loop
      vertex   -1.917500e+002 1.812748e+002 2.702152e+001
      vertex   -1.633981e+002 1.812748e+002 3.702152e+001
      vertex   -1.633981e+002 1.812748e+002 2.702152e+001
    endloop
  endfacet
  facet normal 0.000000e+000 1.000000e+000 0.000000e+000
    outer loop
      vertex   -1.633014e+002 1.795000e+002 3.702152e+001
      vertex   -1.633014e+002 1.795000e+002 2.702152e+001
      vertex   -1.633981e+002 1.795000e+002 3.702152e+001
    endloop
  endfacet
  facet normal 0.000000e+000 1.000000e+000 0.000000e+000
    outer loop
      vertex   -1.633981e+002 1.795000e+002 3.702152e+001
      vertex   -1.633014e+002 1.795000e+002 2.702152e+001
      vertex   -1.633981e+002 1.795000e+002 2.702152e+001
    endloop
  endfacet
  facet normal 1.000000e+000 -0.000000e+000 0.000000e+000
    outer loop
      vertex   -1.633981e+002 1.795000e+002 3.702152e+001
      vertex   -1.633981e+002 1.795000e+002 2.702152e+001
      vertex   -1.633981e+002 1.812748e+002 3.702152e+001
    endloop
  endfacet
  facet normal 1.000000e+000 -0.000000e+000 0.000000e+000
    outer loop
      vertex   -1.633981e+002 1.812748e+002 3.702152e+001
      vertex   -1.633981e+002 1.795000e+002 2.702152e+001
      vertex   -1.633981e+002 1.812748e+002 2.702152e+001
    endloop
  endfacet
  facet normal -0.000000e+000 -1.000000e+000 -0.000000e+000
    outer loop
      vertex   -1.633014e+002 1.792748e+002 3.702152e+001
      vertex   -1.902500e+002 1.792748e+002 3.702152e+001
      vertex   -1.633014e+002 1.792748e+002 2.702152e+001
    endloop
  endfacet
  facet normal -0.000000e+000 -1.000000e+000 -0.000000e+000
    outer loop
      vertex   -1.633014e+002 1.792748e+002 2.702152e+001
      vertex   -1.902500e+002 1.792748e+002 3.702152e+001
      vertex   -1.902500e+002 1.792748e+002 2.702152e+001
    endloop
  endfacet
  facet normal 1.000000e+000 -0.000000e+000 0.000000e+000
    outer loop
      vertex   -1.633014e+002 1.792748e+002 3.702152e+001
      vertex   -1.633014e+002 1.792748e+002 2.702152e+001
      vertex   -1.633014e+002 1.795000e+002 3.702152e+001
    endloop
  endfacet
  facet normal 1.000000e+000 -0.000000e+000 0.000000e+000
    outer loop
      vertex   -1.633014e+002 1.795000e+002 3.702152e+001
      vertex   -1.633014e+002 1.792748e+002 2.702152e+001
      vertex   -1.633014e+002 1.795000e+002 2.702152e+001
    endloop
  endfacet
  facet normal 1.000000e+000 0.000000e+000 -0.000000e+000
    outer loop
      vertex   -1.633567e+002 4.877479e+001 3.338185e+001
      vertex   -1.633567e+002 4.952657e+001 3.338185e+001
      vertex   -1.633567e+002 4.877479e+001 3.702152e+001
    endloop
  endfacet
  facet normal 1.000000e+000 -0.000000e+000 0.000000e+000
    outer loop
      vertex   -1.633567e+002 4.877479e+001 3.702152e+001
      vertex   -1.633567e+002 4.952657e+001 3.338185e+001
      vertex   -1.633567e+002 5.049999e+001 3.702152e+001
    endloop
  endfacet
  facet normal 1.000000e+000 0.000000e+000 0.000000e+000
    outer loop
      vertex   -1.633567e+002 5.049999e+001 3.702152e+001
      vertex   -1.633567e+002 4.952657e+001 3.338185e+001
      vertex   -1.633567e+002 5.049999e+001 2.702152e+001
    endloop
  endfacet
  facet normal 1.000000e+000 0.000000e+000 0.000000e+000
    outer loop
      vertex   -1.633567e+002 5.049999e+001 2.702152e+001
      vertex   -1.633567e+002 4.952657e+001 3.338185e+001
      vertex   -1.633567e+002 4.952657e+001 2.788185e+001
    endloop
  endfacet
  facet normal 1.000000e+000 0.000000e+000 -0.000000e+000
    outer loop
      vertex   -1.633567e+002 4.877479e+001 2.702152e+001
      vertex   -1.633567e+002 4.952657e+001 2.788185e+001
      vertex   -1.633567e+002 4.877479e+001 2.788185e+001
    endloop
  endfacet
  facet normal 1.000000e+000 -0.000000e+000 -0.000000e+000
    outer loop
      vertex   -1.633567e+002 4.877479e+001 2.702152e+001
      vertex   -1.633567e+002 5.049999e+001 2.702152e+001
      vertex   -1.633567e+002 4.952657e+001 2.788185e+001
    endloop
  endfacet
  facet normal 0.000000e+000 1.000000e+000 -0.000000e+000
    outer loop
      vertex   -1.632600e+002 5.077479e+001 2.702152e+001
      vertex   -1.902500e+002 5.077479e+001 2.702152e+001
      vertex   -1.632600e+002 5.077479e+001 3.702152e+001
    endloop
  endfacet
  facet normal 0.000000e+000 1.000000e+000 0.000000e+000
    outer loop
      vertex   -1.632600e+002 5.077479e+001 3.702152e+001
      vertex   -1.902500e+002 5.077479e+001 2.702152e+001
      vertex   -1.902500e+002 5.077479e+001 3.702152e+001
    endloop
  endfacet
  facet normal 0.000000e+000 -1.000000e+000 7.105427e-016
    outer loop
      vertex   -1.632600e+002 5.049999e+001 2.702152e+001
      vertex   -1.632600e+002 5.049999e+001 3.702152e+001
      vertex   -1.633567e+002 5.049999e+001 2.702152e+001
    endloop
  endfacet
  facet normal 7.345600e-014 -1.000000e+000 0.000000e+000
    outer loop
      vertex   -1.633567e+002 5.049999e+001 2.702152e+001
      vertex   -1.632600e+002 5.049999e+001 3.702152e+001
      vertex   -1.633567e+002 5.049999e+001 3.702152e+001
    endloop
  endfacet
  facet normal 1.000000e+000 -0.000000e+000 0.000000e+000
    outer loop
      vertex   -1.632600e+002 5.049999e+001 3.702152e+001
      vertex   -1.632600e+002 5.049999e+001 2.702152e+001
      vertex   -1.632600e+002 5.077479e+001 3.702152e+001
    endloop
  endfacet
  facet normal 1.000000e+000 0.000000e+000 0.000000e+000
    outer loop
      vertex   -1.632600e+002 5.077479e+001 3.702152e+001
      vertex   -1.632600e+002 5.049999e+001 2.702152e+001
      vertex   -1.632600e+002 5.077479e+001 2.702152e+001
    endloop
  endfacet
  facet normal 0.000000e+000 -0.000000e+000 1.000000e+000
    outer loop
      vertex   -1.633567e+002 4.877479e+001 2.788185e+001
      vertex   -1.633567e+002 4.952657e+001 2.788185e+001
      vertex   -1.633832e+002 4.877479e+001 2.788185e+001
    endloop
  endfacet
  facet normal 0.000000e+000 -0.000000e+000 1.000000e+000
    outer loop
      vertex   -1.633832e+002 4.877479e+001 2.788185e+001
      vertex   -1.633567e+002 4.952657e+001 2.788185e+001
      vertex   -1.633832e+002 4.952657e+001 2.788185e+001
    endloop
  endfacet
  facet normal 1.000000e+000 -0.000000e+000 0.000000e+000
    outer loop
      vertex   -1.633832e+002 4.877479e+001 3.338185e+001
      vertex   -1.633832e+002 4.877479e+001 2.788185e+001
      vertex   -1.633832e+002 4.952657e+001 3.338185e+001
    endloop
  endfacet
  facet normal 1.000000e+000 -0.000000e+000 0.000000e+000
    outer loop
      vertex   -1.633832e+002 4.952657e+001 3.338185e+001
      vertex   -1.633832e+002 4.877479e+001 2.788185e+001
      vertex   -1.633832e+002 4.952657e+001 2.788185e+001
    endloop
  endfacet
  facet normal -0.000000e+000 -1.000000e+000 0.000000e+000
    outer loop
      vertex   -1.633567e+002 4.952657e+001 2.788185e+001
      vertex   -1.633567e+002 4.952657e+001 3.338185e+001
      vertex   -1.633832e+002 4.952657e+001 2.788185e+001
    endloop
  endfacet
  facet normal 0.000000e+000 -1.000000e+000 0.000000e+000
    outer loop
      vertex   -1.633832e+002 4.952657e+001 2.788185e+001
      vertex   -1.633567e+002 4.952657e+001 3.338185e+001
      vertex   -1.633832e+002 4.952657e+001 3.338185e+001
    endloop
  endfacet
  facet normal 0.000000e+000 0.000000e+000 -1.000000e+000
    outer loop
      vertex   -1.633832e+002 4.877479e+001 3.338185e+001
      vertex   -1.633832e+002 4.952657e+001 3.338185e+001
      vertex   -1.633567e+002 4.877479e+001 3.338185e+001
    endloop
  endfacet
  facet normal 0.000000e+000 0.000000e+000 -1.000000e+000
    outer loop
      vertex   -1.633567e+002 4.877479e+001 3.338185e+001
      vertex   -1.633832e+002 4.952657e+001 3.338185e+001
      vertex   -1.633567e+002 4.952657e+001 3.338185e+001
    endloop
  endfacet
endsolid
